<?xml version="1.0" encoding="UTF-8"?>
<!DOCTYPE svg PUBLIC "-//W3C//DTD SVG 1.1//EN" "http://www.w3.org/Graphics/SVG/1.1/DTD/svg11.dtd">
<svg xmlns="http://www.w3.org/2000/svg" version="1.1" width="1270px" height="311px" style="shape-rendering:geometricPrecision; text-rendering:geometricPrecision; image-rendering:optimizeQuality; fill-rule:evenodd; clip-rule:evenodd" xmlns:xlink="http://www.w3.org/1999/xlink">
<g><path style="opacity:0.11" fill="#fae075" d="M 432.5,6.5 C 494.665,5.33467 556.999,5.16801 619.5,6C 621.037,7.10963 621.703,8.60963 621.5,10.5C 620.883,10.6107 620.383,10.944 620,11.5C 618.778,9.30361 616.944,7.80361 614.5,7C 553.834,6.50001 493.168,6.33334 432.5,6.5 Z"/></g>
<g><path style="opacity:0.11" fill="#f5dc72" d="M 1204.5,6.5 C 1223.66,5.33766 1243,5.171 1262.5,6C 1264.28,7.06652 1264.78,8.56652 1264,10.5C 1261.36,14.2863 1259.19,18.2863 1257.5,22.5C 1256.35,22.2089 1255.68,21.3756 1255.5,20C 1257.44,15.3404 1259.44,10.8404 1261.5,6.5C 1242.5,6.5 1223.5,6.5 1204.5,6.5 Z"/></g>
<g><path style="opacity:0.376" fill="#f9dd68" d="M 731.5,18.5 C 730.5,18.5 729.5,18.5 728.5,18.5C 729.204,14.1973 727.87,10.6973 724.5,8C 706.824,7.16702 689.157,7.33369 671.5,8.5C 671.121,10.2131 670.121,11.2131 668.5,11.5C 668.141,9.23405 668.808,7.40072 670.5,6C 689.833,5.33333 709.167,5.33333 728.5,6C 730.718,9.76082 731.718,13.9275 731.5,18.5 Z"/></g>
<g><path style="opacity:1" fill="#fedc52" d="M 1.5,6.5 C 18.8365,6.33339 36.1699,6.50006 53.5,7C 54.8905,8.02003 56.3905,8.85336 58,9.5C 59.1535,26.4117 59.6535,43.4117 59.5,60.5C 59.2244,82.1764 59.0577,103.843 59,125.5C 60.3528,126.704 62.0194,127.371 64,127.5C 65.5,127.333 67,127.167 68.5,127C 71.0911,122.626 74.2577,118.793 78,115.5C 78.4955,113.527 78.6621,111.527 78.5,109.5C 79.1001,108.1 80.1001,107.1 81.5,106.5C 80.1498,107.65 80.3164,108.317 82,108.5C 83.1712,107.66 84.3379,106.827 85.5,106C 87.8465,102.073 90.3465,98.2402 93,94.5C 95,93.1667 97,91.8333 99,90.5C 99.4709,88.7536 100.138,87.087 101,85.5C 105.356,82.6474 107.856,78.6474 108.5,73.5C 108.328,72.5084 108.662,71.8417 109.5,71.5C 109.343,72.8734 109.51,74.2068 110,75.5C 111.667,73.8333 113.333,72.1667 115,70.5C 118.155,67.4903 120.322,63.8236 121.5,59.5C 125.22,58.0691 127.553,55.4025 128.5,51.5C 134.34,46.2756 139.34,40.4422 143.5,34C 142.906,33.5357 142.239,33.369 141.5,33.5C 141.66,31.847 142.326,30.5137 143.5,29.5C 145.089,30.6211 146.756,30.4544 148.5,29C 150.53,27.1038 152.197,24.9371 153.5,22.5C 154.748,23.0402 155.915,23.7069 157,24.5C 158.502,22.2051 158.668,19.8718 157.5,17.5C 158.345,14.5878 160.012,13.5878 162.5,14.5C 163.795,11.9881 164.461,9.32141 164.5,6.5C 184.167,6.5 203.833,6.5 223.5,6.5C 224.5,6.5 225.5,6.5 226.5,6.5C 227.175,12.1696 225.175,16.503 220.5,19.5C 220.631,18.6236 220.298,17.9569 219.5,17.5C 216.453,18.8751 215.12,21.2084 215.5,24.5C 213.5,24.5 211.5,24.5 209.5,24.5C 209.657,25.8734 209.49,27.2068 209,28.5C 202.333,37.1667 195.667,45.8333 189,54.5C 188.51,55.7932 188.343,57.1266 188.5,58.5C 188.672,59.4916 188.338,60.1583 187.5,60.5C 186.778,60.0825 186.278,59.4158 186,58.5C 184.541,62.4501 182.041,65.4501 178.5,67.5C 173.857,65.8214 170.857,67.3214 169.5,72C 170.602,74.5388 170.602,77.0388 169.5,79.5C 166.828,81.6726 164.494,84.1726 162.5,87C 161.207,87.49 159.873,87.6567 158.5,87.5C 158.5,86.5 158.5,85.5 158.5,84.5C 157.167,84.5 155.833,84.5 154.5,84.5C 154.5,85.8333 154.5,87.1667 154.5,88.5C 158,88.4954 159.5,90.1621 159,93.5C 157.915,94.2931 156.748,94.9598 155.5,95.5C 152.21,93.9621 151.21,94.7954 152.5,98C 151.018,102.321 148.018,104.488 143.5,104.5C 143.808,106.924 143.474,109.257 142.5,111.5C 139.218,116.673 135.718,121.673 132,126.5C 129.81,127.584 128.144,126.917 127,124.5C 123.992,129.016 122.826,134.016 123.5,139.5C 121.909,141.566 120.575,143.899 119.5,146.5C 119.931,147.293 120.265,148.127 120.5,149C 129.611,161.775 139.444,173.942 150,185.5C 151.856,188.556 153.689,191.556 155.5,194.5C 159.836,201.352 163.502,208.519 166.5,216C 165.743,217.512 164.743,218.846 163.5,220C 164.701,220.903 165.535,222.069 166,223.5C 167.61,221.469 169.443,221.469 171.5,223.5C 172.554,223.32 173.554,222.987 174.5,222.5C 175.01,225.152 176.343,227.152 178.5,228.5C 179.452,230.045 179.785,231.712 179.5,233.5C 184.951,233.534 187.618,236.2 187.5,241.5C 188.833,241.5 190.167,241.5 191.5,241.5C 192.45,244.068 192.45,246.568 191.5,249C 194.121,250.595 196.787,252.095 199.5,253.5C 200.429,254.689 200.762,256.022 200.5,257.5C 206.43,259.01 208.097,262.677 205.5,268.5C 206.822,268.67 207.989,268.337 209,267.5C 211.674,269.682 213.841,272.349 215.5,275.5C 212.799,279.962 213.632,280.962 218,278.5C 219.77,280.617 221.27,282.951 222.5,285.5C 224.839,286.843 227.172,288.176 229.5,289.5C 231.395,293.702 232.729,298.036 233.5,302.5C 212.121,302.189 190.788,302.522 169.5,303.5C 168.833,303.5 168.5,303.167 168.5,302.5C 168.261,300.533 168.594,298.699 169.5,297C 166.241,294.41 163.741,291.244 162,287.5C 161.667,287.833 161.333,288.167 161,288.5C 159.915,287.707 158.748,287.04 157.5,286.5C 155.58,283.238 153.246,280.238 150.5,277.5C 149.571,276.311 149.238,274.978 149.5,273.5C 145.669,273.341 143.336,271.341 142.5,267.5C 141.311,266.571 139.978,266.238 138.5,266.5C 129.839,257.157 121.839,247.157 114.5,236.5C 114.66,234.801 114.494,233.134 114,231.5C 107.661,225.701 102.828,219.034 99.5,211.5C 98.1667,211.5 96.8333,211.5 95.5,211.5C 94.84,206.489 92.1733,202.822 87.5,200.5C 86.6143,199.675 86.281,198.675 86.5,197.5C 85.1667,197.5 83.8333,197.5 82.5,197.5C 76.9369,191.383 71.6036,185.05 66.5,178.5C 65.3112,177.571 63.9778,177.238 62.5,177.5C 62.5,218.5 62.5,259.5 62.5,300.5C 61.8333,259.5 61.1667,218.5 60.5,177.5C 59.5014,218.997 59.168,260.663 59.5,302.5C 40.8304,302.333 22.1637,302.5 3.5,303C 2.94404,303.383 2.61071,303.883 2.5,304.5C 1.77842,304.082 1.27842,303.416 1,302.5C 0.827574,296.319 0.327574,290.319 -0.5,284.5C -0.5,273.5 -0.5,262.5 -0.5,251.5C 0.833333,250.5 0.833333,249.5 -0.5,248.5C -0.5,170.167 -0.5,91.8333 -0.5,13.5C 0.166667,11.1667 0.833333,8.83333 1.5,6.5 Z"/></g>
<g><path style="opacity:0.988" fill="#fedc52" d="M 432.5,6.5 C 493.168,6.33334 553.834,6.50001 614.5,7C 616.944,7.80361 618.778,9.30361 620,11.5C 620.383,10.944 620.883,10.6107 621.5,10.5C 621.667,24.504 621.5,38.504 621,52.5C 619.577,54.5039 617.744,56.0039 615.5,57C 574.196,57.4883 533.196,57.655 492.5,57.5C 491.833,57.5 491.167,57.5 490.5,57.5C 489.668,80.3297 489.168,103.33 489,126.5C 488.782,129.426 488.282,132.26 487.5,135C 488.931,135.465 490.097,136.299 491,137.5C 529.292,137.488 567.792,137.488 606.5,137.5C 606.5,152.833 606.5,168.167 606.5,183.5C 605.833,183.833 605.167,184.167 604.5,184.5C 604.389,183.883 604.056,183.383 603.5,183C 565.84,181.992 528.173,181.492 490.5,181.5C 489.69,183.798 488.856,186.132 488,188.5C 484.667,189.5 484.667,190.5 488,191.5C 489.342,190.098 490.176,190.431 490.5,192.5C 490.444,193.737 489.944,194.737 489,195.5C 488.5,231.165 488.333,266.832 488.5,302.5C 469.5,302.5 450.5,302.5 431.5,302.5C 430.852,252.493 430.519,202.327 430.5,152C 430.667,104.5 430.833,57 431,9.5C 431.232,8.26253 431.732,7.26253 432.5,6.5 Z"/></g>
<g><path style="opacity:0.991" fill="#fedc52" d="M 731.5,18.5 C 731.83,96.2078 731.497,173.874 730.5,251.5C 772.828,252.5 815.161,252.833 857.5,252.5C 857.461,253.756 857.961,254.756 859,255.5C 860.293,270.967 861.127,286.3 861.5,301.5C 861.5,302.167 861.167,302.5 860.5,302.5C 797.833,302.5 735.167,302.5 672.5,302.5C 672.667,216.499 672.5,130.499 672,44.5C 671.654,41.4245 670.988,38.4245 670,35.5C 669.617,36.056 669.117,36.3893 668.5,36.5C 668.5,28.1667 668.5,19.8333 668.5,11.5C 670.121,11.2131 671.121,10.2131 671.5,8.5C 689.157,7.33369 706.824,7.16702 724.5,8C 727.87,10.6973 729.204,14.1973 728.5,18.5C 729.5,18.5 730.5,18.5 731.5,18.5 Z"/></g>
<g><path style="opacity:0.596" fill="#f6da67" d="M 223.5,6.5 C 203.833,6.5 184.167,6.5 164.5,6.5C 164.461,9.32141 163.795,11.9881 162.5,14.5C 160.012,13.5878 158.345,14.5878 157.5,17.5C 158.668,19.8718 158.502,22.2051 157,24.5C 155.915,23.7069 154.748,23.0402 153.5,22.5C 152.197,24.9371 150.53,27.1038 148.5,29C 146.756,30.4544 145.089,30.6211 143.5,29.5C 149.611,21.2203 156.277,13.3869 163.5,6C 183.671,5.17085 203.671,5.33752 223.5,6.5 Z"/></g>
<g><path style="opacity:1" fill="#fedb51" d="M 967.5,6.5 C 969.213,7.63535 969.88,9.30202 969.5,11.5C 968.883,11.3893 968.383,11.056 968,10.5C 967.333,106.167 967.333,201.833 968,297.5C 968.198,295.618 968.698,293.952 969.5,292.5C 970.069,296.329 969.402,299.663 967.5,302.5C 948.5,302.5 929.5,302.5 910.5,302.5C 910.831,205.126 910.498,107.793 909.5,10.5C 909.833,9.83333 910.167,9.16667 910.5,8.5C 929.522,7.79628 948.522,7.12961 967.5,6.5 Z"/></g>
<g><path style="opacity:1" fill="#fedc53" d="M 1129.5,96.5 C 1131.1,97.287 1131.77,98.6203 1131.5,100.5C 1130.36,103.068 1130.52,105.735 1132,108.5C 1134.15,109.977 1135.48,111.977 1136,114.5C 1139.12,115.748 1142.12,115.414 1145,113.5C 1146.41,110.339 1148.08,107.339 1150,104.5C 1150.5,102.19 1150.66,99.8568 1150.5,97.5C 1164.96,72.2404 1179.12,46.9071 1193,21.5C 1196.21,17.5781 1198.88,13.2447 1201,8.5C 1201.82,7.17723 1202.98,6.51056 1204.5,6.5C 1223.5,6.5 1242.5,6.5 1261.5,6.5C 1259.44,10.8404 1257.44,15.3404 1255.5,20C 1255.68,21.3756 1256.35,22.2089 1257.5,22.5C 1231.81,65.206 1207.14,108.539 1183.5,152.5C 1198.14,179.113 1213.31,205.447 1229,231.5C 1230.01,233.025 1230.51,234.692 1230.5,236.5C 1230.34,238.527 1230.5,240.527 1231,242.5C 1232.91,245.215 1234.24,248.215 1235,251.5C 1238.16,253.212 1239.82,255.879 1240,259.5C 1242.65,261.128 1243.48,263.295 1242.5,266C 1248.07,268.861 1251.41,273.361 1252.5,279.5C 1254.22,279.629 1255.88,279.962 1257.5,280.5C 1258.99,284.781 1261.33,288.614 1264.5,292C 1265.15,293.44 1265.48,294.94 1265.5,296.5C 1265.5,298.5 1265.5,300.5 1265.5,302.5C 1245.83,302.5 1226.17,302.5 1206.5,302.5C 1206.5,299 1204.84,297.5 1201.5,298C 1202.06,298.383 1202.39,298.883 1202.5,299.5C 1192.1,283.724 1182.43,267.391 1173.5,250.5C 1174.12,250.083 1174.46,249.416 1174.5,248.5C 1172.95,243.994 1171.29,239.661 1169.5,235.5C 1168.5,235.5 1167.5,235.5 1166.5,235.5C 1166.19,231.83 1164.52,228.83 1161.5,226.5C 1159.1,219.983 1155.77,213.983 1151.5,208.5C 1150.73,206.187 1150.06,203.854 1149.5,201.5C 1148.97,200.808 1148.31,200.308 1147.5,200C 1148.97,199.29 1149.64,198.124 1149.5,196.5C 1148.32,196.719 1147.32,196.386 1146.5,195.5C 1145.07,193.063 1143.74,190.563 1142.5,188C 1140.83,187.333 1139.17,187.333 1137.5,188C 1136.1,189.438 1134.43,190.271 1132.5,190.5C 1132.92,193.657 1131.75,195.99 1129,197.5C 1128.06,200.271 1127.89,202.938 1128.5,205.5C 1124.23,214.718 1119.23,223.385 1113.5,231.5C 1113.22,229.242 1112.22,228.908 1110.5,230.5C 1107.33,235.163 1105,240.163 1103.5,245.5C 1101.86,245.286 1100.36,245.62 1099,246.5C 1097.71,249.405 1096.71,252.405 1096,255.5C 1094.67,256.167 1093.33,256.833 1092,257.5C 1092.72,260.797 1092.55,264.13 1091.5,267.5C 1089.1,267.393 1087.26,268.393 1086,270.5C 1085.32,272.895 1084.49,275.228 1083.5,277.5C 1082.26,278.246 1080.93,278.579 1079.5,278.5C 1079.29,280.144 1079.62,281.644 1080.5,283C 1077.96,285.393 1077.96,287.56 1080.5,289.5C 1077.48,293.055 1074.98,297.055 1073,301.5C 1071.89,302.305 1070.72,302.972 1069.5,303.5C 1050.24,302.513 1030.91,302.18 1011.5,302.5C 1011.67,300.139 1012.01,297.806 1012.5,295.5C 1028.8,267.802 1044.63,239.802 1060,211.5C 1061.04,210.29 1062.21,209.29 1063.5,208.5C 1065.47,207.559 1067.47,206.559 1069.5,205.5C 1070.31,203.234 1070.81,200.9 1071,198.5C 1073.09,196.654 1074.43,194.321 1075,191.5C 1077.56,190.781 1078.72,189.114 1078.5,186.5C 1079.5,186.5 1080.5,186.5 1081.5,186.5C 1081.37,184.345 1081.87,182.345 1083,180.5C 1083.33,180.833 1083.67,181.167 1084,181.5C 1084.55,177.83 1085.05,174.163 1085.5,170.5C 1088.25,164.241 1091.25,158.074 1094.5,152C 1089.07,142.499 1083.73,132.999 1078.5,123.5C 1079.5,123.5 1080.5,123.5 1081.5,123.5C 1081.37,120.532 1079.87,118.532 1077,117.5C 1076.26,114.225 1074.59,111.558 1072,109.5C 1071.85,102.021 1068.85,96.0213 1063,91.5C 1063,88.7708 1061.83,86.7708 1059.5,85.5C 1058.03,82.6772 1057.69,79.8438 1058.5,77C 1056.29,75.1932 1053.96,75.0265 1051.5,76.5C 1041.97,58.7843 1031.97,41.2843 1021.5,24C 1019.88,20.9039 1018.55,17.7372 1017.5,14.5C 1017.17,11.8333 1016.83,9.16667 1016.5,6.5C 1035.17,6.33339 1053.84,6.50005 1072.5,7C 1073.65,8.88301 1075.32,9.71634 1077.5,9.5C 1076.83,11.8194 1076.67,14.1527 1077,16.5C 1083.53,19.4579 1087.2,24.4579 1088,31.5C 1090.33,33.1667 1092.33,35.1667 1094,37.5C 1096.85,43.0523 1099.52,48.719 1102,54.5C 1105.46,57.6918 1107.46,61.6918 1108,66.5C 1109.98,69.9784 1112.48,72.9784 1115.5,75.5C 1116.24,79.0202 1117.57,82.1869 1119.5,85C 1119.35,86.707 1119.02,88.3736 1118.5,90C 1118.83,90.5 1119.17,91 1119.5,91.5C 1120.24,90.0921 1121.08,88.7588 1122,87.5C 1123.67,90.8333 1125.33,94.1667 1127,97.5C 1127.34,95.3808 1128.18,95.0474 1129.5,96.5 Z"/></g>
<g><path style="opacity:0.478" fill="#f5dc6d" d="M 1.5,6.5 C 20.9957,5.33759 40.6624,5.17092 60.5,6C 61.056,6.38258 61.3893,6.88258 61.5,7.5C 60.8334,26.9971 60.5,46.6638 60.5,66.5C 60.5003,86.5115 61.167,106.178 62.5,125.5C 63.552,125.649 64.552,125.483 65.5,125C 70.074,119.935 74.4074,114.769 78.5,109.5C 78.6621,111.527 78.4955,113.527 78,115.5C 74.2577,118.793 71.0911,122.626 68.5,127C 67,127.167 65.5,127.333 64,127.5C 62.0194,127.371 60.3528,126.704 59,125.5C 59.0577,103.843 59.2244,82.1764 59.5,60.5C 59.6535,43.4117 59.1535,26.4117 58,9.5C 56.3905,8.85336 54.8905,8.02003 53.5,7C 36.1699,6.50006 18.8365,6.33339 1.5,6.5 Z"/></g>
<g><path style="opacity:0.975" fill="#f4da68" d="M 220.5,19.5 C 210.536,33.1254 199.869,46.1254 188.5,58.5C 188.343,57.1266 188.51,55.7932 189,54.5C 195.667,45.8333 202.333,37.1667 209,28.5C 209.49,27.2068 209.657,25.8734 209.5,24.5C 211.5,24.5 213.5,24.5 215.5,24.5C 215.12,21.2084 216.453,18.8751 219.5,17.5C 220.298,17.9569 220.631,18.6236 220.5,19.5 Z"/></g>
<g><path style="opacity:0.176" fill="#f4e782" d="M 61.5,7.5 C 62.4986,46.6631 62.8319,85.9965 62.5,125.5C 61.167,106.178 60.5003,86.5115 60.5,66.5C 60.5,46.6638 60.8334,26.9971 61.5,7.5 Z"/></g>
<g><path style="opacity:0.576" fill="#f6dc6c" d="M 1129.5,96.5 C 1128.18,95.0474 1127.34,95.3808 1127,97.5C 1125.33,94.1667 1123.67,90.8333 1122,87.5C 1121.08,88.7588 1120.24,90.0921 1119.5,91.5C 1119.17,91 1118.83,90.5 1118.5,90C 1119.02,88.3736 1119.35,86.707 1119.5,85C 1117.57,82.1869 1116.24,79.0202 1115.5,75.5C 1112.48,72.9784 1109.98,69.9784 1108,66.5C 1107.46,61.6918 1105.46,57.6918 1102,54.5C 1099.52,48.719 1096.85,43.0523 1094,37.5C 1092.33,35.1667 1090.33,33.1667 1088,31.5C 1087.2,24.4579 1083.53,19.4579 1077,16.5C 1076.67,14.1527 1076.83,11.8194 1077.5,9.5C 1075.32,9.71634 1073.65,8.88301 1072.5,7C 1053.84,6.50005 1035.17,6.33339 1016.5,6.5C 1016.83,9.16667 1017.17,11.8333 1017.5,14.5C 1015.48,13.3093 1014.14,11.4759 1013.5,9C 1013.75,7.67386 1014.42,6.67386 1015.5,6C 1036.17,5.33333 1056.83,5.33333 1077.5,6C 1095.75,35.6643 1113.08,65.8309 1129.5,96.5 Z"/></g>
<g><path style="opacity:0.694" fill="#f4de67" d="M 141.5,33.5 C 142.239,33.369 142.906,33.5357 143.5,34C 139.34,40.4422 134.34,46.2756 128.5,51.5C 127.553,55.4025 125.22,58.0691 121.5,59.5C 120.322,63.8236 118.155,67.4903 115,70.5C 113.333,72.1667 111.667,73.8333 110,75.5C 109.51,74.2068 109.343,72.8734 109.5,71.5C 118.489,60.2072 127.489,48.8739 136.5,37.5C 138.185,36.0473 139.851,34.714 141.5,33.5 Z"/></g>
<g><path style="opacity:1" fill="#f9db64" d="M 187.5,60.5 C 166.388,87.083 145.055,113.416 123.5,139.5C 122.826,134.016 123.992,129.016 127,124.5C 128.144,126.917 129.81,127.584 132,126.5C 135.718,121.673 139.218,116.673 142.5,111.5C 143.474,109.257 143.808,106.924 143.5,104.5C 148.018,104.488 151.018,102.321 152.5,98C 151.21,94.7954 152.21,93.9621 155.5,95.5C 156.748,94.9598 157.915,94.2931 159,93.5C 159.5,90.1621 158,88.4954 154.5,88.5C 154.5,87.1667 154.5,85.8333 154.5,84.5C 155.833,84.5 157.167,84.5 158.5,84.5C 158.5,85.5 158.5,86.5 158.5,87.5C 159.873,87.6567 161.207,87.49 162.5,87C 164.494,84.1726 166.828,81.6726 169.5,79.5C 170.602,77.0388 170.602,74.5388 169.5,72C 170.857,67.3214 173.857,65.8214 178.5,67.5C 182.041,65.4501 184.541,62.4501 186,58.5C 186.278,59.4158 186.778,60.0825 187.5,60.5 Z"/></g>
<g><path style="opacity:0.137" fill="#f0db7e" d="M 490.5,57.5 C 491.167,57.5 491.833,57.5 492.5,57.5C 492.5,82.8333 492.5,108.167 492.5,133.5C 491.778,133.082 491.278,132.416 491,131.5C 490.5,106.836 490.333,82.1689 490.5,57.5 Z"/></g>
<g><path style="opacity:0.284" fill="#f9d869" d="M 1078.5,123.5 C 1069.48,107.819 1060.48,92.1523 1051.5,76.5C 1053.96,75.0265 1056.29,75.1932 1058.5,77C 1057.69,79.8438 1058.03,82.6772 1059.5,85.5C 1061.83,86.7708 1063,88.7708 1063,91.5C 1068.85,96.0213 1071.85,102.021 1072,109.5C 1074.59,111.558 1076.26,114.225 1077,117.5C 1079.87,118.532 1081.37,120.532 1081.5,123.5C 1080.5,123.5 1079.5,123.5 1078.5,123.5 Z"/></g>
<g><path style="opacity:0.043" fill="#dfd072" d="M 969.5,11.5 C 969.5,105.167 969.5,198.833 969.5,292.5C 968.698,293.952 968.198,295.618 968,297.5C 967.333,201.833 967.333,106.167 968,10.5C 968.383,11.056 968.883,11.3893 969.5,11.5 Z"/></g>
<g><path style="opacity:0.537" fill="#f5db6d" d="M 108.5,73.5 C 107.856,78.6474 105.356,82.6474 101,85.5C 100.138,87.087 99.4709,88.7536 99,90.5C 97,91.8333 95,93.1667 93,94.5C 90.3465,98.2402 87.8465,102.073 85.5,106C 84.3379,106.827 83.1712,107.66 82,108.5C 80.3164,108.317 80.1498,107.65 81.5,106.5C 89.7711,94.9304 98.7711,83.9304 108.5,73.5 Z"/></g>
<g><path style="opacity:0.884" fill="#f5dd6b" d="M 1150.5,97.5 C 1150.66,99.8568 1150.5,102.19 1150,104.5C 1148.08,107.339 1146.41,110.339 1145,113.5C 1142.12,115.414 1139.12,115.748 1136,114.5C 1135.48,111.977 1134.15,109.977 1132,108.5C 1130.52,105.735 1130.36,103.068 1131.5,100.5C 1134.25,103.72 1136.25,107.387 1137.5,111.5C 1139.17,111.5 1140.83,111.5 1142.5,111.5C 1143.14,108.047 1144.48,104.881 1146.5,102C 1147.47,100.025 1148.8,98.5245 1150.5,97.5 Z"/></g>
<g><path style="opacity:0.99" fill="#fedc53" d="M 254.5,132.5 C 295.572,132.173 336.572,132.506 377.5,133.5C 376.847,150.197 376.181,166.863 375.5,183.5C 372.375,184.479 369.042,184.813 365.5,184.5C 364.391,183.71 363.058,183.21 361.5,183C 325.835,182.5 290.168,182.333 254.5,182.5C 254.5,165.833 254.5,149.167 254.5,132.5 Z"/></g>
<g><path style="opacity:0.31" fill="#f2dc82" d="M 493.5,133.5 C 531.833,133.5 570.167,133.5 608.5,133.5C 608.5,134.5 608.5,135.5 608.5,136.5C 569.861,136.181 531.528,135.181 493.5,133.5 Z"/></g>
<g><path style="opacity:0.741" fill="#f9da66" d="M 490.5,57.5 C 490.333,82.1689 490.5,106.836 491,131.5C 491.278,132.416 491.778,133.082 492.5,133.5C 492.833,133.5 493.167,133.5 493.5,133.5C 531.528,135.181 569.861,136.181 608.5,136.5C 609.661,151.661 609.828,166.994 609,182.5C 608.329,183.252 607.496,183.586 606.5,183.5C 606.5,168.167 606.5,152.833 606.5,137.5C 567.792,137.488 529.292,137.488 491,137.5C 490.097,136.299 488.931,135.465 487.5,135C 488.282,132.26 488.782,129.426 489,126.5C 489.168,103.33 489.668,80.3297 490.5,57.5 Z"/></g>
<g><path style="opacity:0.152" fill="#efdf8d" d="M 252.5,133.5 C 252.5,150.167 252.5,166.833 252.5,183.5C 251.883,183.389 251.383,183.056 251,182.5C 250.833,174.333 250.667,166.167 250.5,158C 250.502,149.472 251.169,141.305 252.5,133.5 Z"/></g>
<g><path style="opacity:0.145" fill="#eedb7f" d="M 377.5,133.5 C 378.662,149.661 378.828,165.995 378,182.5C 377.329,183.252 376.496,183.586 375.5,183.5C 376.181,166.863 376.847,150.197 377.5,133.5 Z"/></g>
<g><path style="opacity:0.692" fill="#fbd466" d="M 967.5,6.5 C 948.522,7.12961 929.522,7.79628 910.5,8.5C 910.167,9.16667 909.833,9.83333 909.5,10.5C 910.498,107.793 910.831,205.126 910.5,302.5C 929.5,302.5 948.5,302.5 967.5,302.5C 967.389,303.117 967.056,303.617 966.5,304C 947.158,304.833 927.825,304.666 908.5,303.5C 908,302.5 907.5,301.5 907,300.5C 906.174,202.139 906.34,103.805 907.5,5.5C 927.674,5.16955 947.674,5.50288 967.5,6.5 Z"/></g>
<g><path style="opacity:0.424" fill="#fce457" d="M 254.5,132.5 C 254.5,149.167 254.5,165.833 254.5,182.5C 290.168,182.333 325.835,182.5 361.5,183C 363.058,183.21 364.391,183.71 365.5,184.5C 327.761,184.827 290.094,184.493 252.5,183.5C 252.5,166.833 252.5,150.167 252.5,133.5C 253.167,133.167 253.833,132.833 254.5,132.5 Z"/></g>
<g><path style="opacity:0.984" fill="#fbe15a" d="M 604.5,184.5 C 567.167,184.5 529.833,184.5 492.5,184.5C 492.5,188.5 492.5,192.5 492.5,196.5C 491.883,196.611 491.383,196.944 491,197.5C 490.169,232.669 490.336,267.669 491.5,302.5C 482.023,303.832 472.19,304.499 462,304.5C 452.167,304.333 442.333,304.167 432.5,304C 431.944,303.617 431.611,303.117 431.5,302.5C 450.5,302.5 469.5,302.5 488.5,302.5C 488.333,266.832 488.5,231.165 489,195.5C 489.944,194.737 490.444,193.737 490.5,192.5C 490.176,190.431 489.342,190.098 488,191.5C 484.667,190.5 484.667,189.5 488,188.5C 488.856,186.132 489.69,183.798 490.5,181.5C 528.173,181.492 565.84,181.992 603.5,183C 604.056,183.383 604.389,183.883 604.5,184.5 Z"/></g>
<g><path style="opacity:0.366" fill="#f2dc7b" d="M 492.5,196.5 C 492.832,232.004 492.498,267.337 491.5,302.5C 490.336,267.669 490.169,232.669 491,197.5C 491.383,196.944 491.883,196.611 492.5,196.5 Z"/></g>
<g><path style="opacity:0.976" fill="#f9da6d" d="M 1085.5,170.5 C 1085.05,174.163 1084.55,177.83 1084,181.5C 1083.67,181.167 1083.33,180.833 1083,180.5C 1081.87,182.345 1081.37,184.345 1081.5,186.5C 1080.5,186.5 1079.5,186.5 1078.5,186.5C 1078.72,189.114 1077.56,190.781 1075,191.5C 1074.43,194.321 1073.09,196.654 1071,198.5C 1070.81,200.9 1070.31,203.234 1069.5,205.5C 1067.47,206.559 1065.47,207.559 1063.5,208.5C 1070,195.34 1077.33,182.673 1085.5,170.5 Z"/></g>
<g><path style="opacity:0.702" fill="#f5dc6d" d="M 82.5,197.5 C 83.8333,197.5 85.1667,197.5 86.5,197.5C 86.281,198.675 86.6143,199.675 87.5,200.5C 92.1733,202.822 94.84,206.489 95.5,211.5C 96.8333,211.5 98.1667,211.5 99.5,211.5C 102.828,219.034 107.661,225.701 114,231.5C 114.494,233.134 114.66,234.801 114.5,236.5C 103.1,224.1 92.4329,211.1 82.5,197.5 Z"/></g>
<g><path style="opacity:0.62" fill="#f6dd67" d="M 1173.5,250.5 C 1161.71,230.982 1150.05,211.315 1138.5,191.5C 1137.52,191.977 1136.69,192.643 1136,193.5C 1133.73,197.732 1131.23,201.732 1128.5,205.5C 1127.89,202.938 1128.06,200.271 1129,197.5C 1131.75,195.99 1132.92,193.657 1132.5,190.5C 1134.43,190.271 1136.1,189.438 1137.5,188C 1139.17,187.333 1140.83,187.333 1142.5,188C 1143.74,190.563 1145.07,193.063 1146.5,195.5C 1147.32,196.386 1148.32,196.719 1149.5,196.5C 1149.64,198.124 1148.97,199.29 1147.5,200C 1148.31,200.308 1148.97,200.808 1149.5,201.5C 1150.06,203.854 1150.73,206.187 1151.5,208.5C 1155.77,213.983 1159.1,219.983 1161.5,226.5C 1164.52,228.83 1166.19,231.83 1166.5,235.5C 1167.5,235.5 1168.5,235.5 1169.5,235.5C 1171.29,239.661 1172.95,243.994 1174.5,248.5C 1174.46,249.416 1174.12,250.083 1173.5,250.5 Z"/></g>
<g><path style="opacity:0.397" fill="#f1d985" d="M 668.5,40.5 C 669.117,40.6107 669.617,40.944 670,41.5C 670.167,82 670.333,122.5 670.5,163C 670.5,203.839 669.833,244.339 668.5,284.5C 668.5,203.167 668.5,121.833 668.5,40.5 Z"/></g>
<g><path style="opacity:0.992" fill="#f9da63" d="M 155.5,194.5 C 157.327,196.132 159.161,197.799 161,199.5C 178.873,223.88 197.707,247.546 217.5,270.5C 222.463,277.958 227.963,284.958 234,291.5C 235.696,293.56 236.863,295.893 237.5,298.5C 237.27,300.626 236.27,302.293 234.5,303.5C 212.67,304.828 191.004,304.828 169.5,303.5C 190.788,302.522 212.121,302.189 233.5,302.5C 232.729,298.036 231.395,293.702 229.5,289.5C 227.172,288.176 224.839,286.843 222.5,285.5C 221.27,282.951 219.77,280.617 218,278.5C 213.632,280.962 212.799,279.962 215.5,275.5C 213.841,272.349 211.674,269.682 209,267.5C 207.989,268.337 206.822,268.67 205.5,268.5C 208.097,262.677 206.43,259.01 200.5,257.5C 200.762,256.022 200.429,254.689 199.5,253.5C 196.787,252.095 194.121,250.595 191.5,249C 192.45,246.568 192.45,244.068 191.5,241.5C 190.167,241.5 188.833,241.5 187.5,241.5C 187.618,236.2 184.951,233.534 179.5,233.5C 179.785,231.712 179.452,230.045 178.5,228.5C 176.343,227.152 175.01,225.152 174.5,222.5C 173.554,222.987 172.554,223.32 171.5,223.5C 169.443,221.469 167.61,221.469 166,223.5C 165.535,222.069 164.701,220.903 163.5,220C 164.743,218.846 165.743,217.512 166.5,216C 163.502,208.519 159.836,201.352 155.5,194.5 Z"/></g>
<g><path style="opacity:0.176" fill="#efdc82" d="M 60.5,177.5 C 61.1667,218.5 61.8333,259.5 62.5,300.5C 62.5,301.833 61.8333,302.5 60.5,302.5C 60.5,260.833 60.5,219.167 60.5,177.5 Z"/></g>
<g><path style="opacity:0.988" fill="#f7dd65" d="M 1113.5,231.5 C 1102.12,250.638 1091.12,269.972 1080.5,289.5C 1077.96,287.56 1077.96,285.393 1080.5,283C 1079.62,281.644 1079.29,280.144 1079.5,278.5C 1080.93,278.579 1082.26,278.246 1083.5,277.5C 1084.49,275.228 1085.32,272.895 1086,270.5C 1087.26,268.393 1089.1,267.393 1091.5,267.5C 1092.55,264.13 1092.72,260.797 1092,257.5C 1093.33,256.833 1094.67,256.167 1096,255.5C 1096.71,252.405 1097.71,249.405 1099,246.5C 1100.36,245.62 1101.86,245.286 1103.5,245.5C 1105,240.163 1107.33,235.163 1110.5,230.5C 1112.22,228.908 1113.22,229.242 1113.5,231.5 Z"/></g>
<g><path style="opacity:0.468" fill="#fce179" d="M 857.5,252.5 C 858.708,253.234 860.041,253.567 861.5,253.5C 862.167,255.833 862.833,258.167 863.5,260.5C 862.007,261.312 861.34,262.645 861.5,264.5C 861.599,266.799 862.266,268.799 863.5,270.5C 863.666,280.172 863.5,289.839 863,299.5C 862.722,300.416 862.222,301.082 861.5,301.5C 861.127,286.3 860.293,270.967 859,255.5C 857.961,254.756 857.461,253.756 857.5,252.5 Z"/></g>
<g><path style="opacity:0.004" fill="#ffd3c3" d="M 863.5,260.5 C 863.5,263.833 863.5,267.167 863.5,270.5C 862.266,268.799 861.599,266.799 861.5,264.5C 861.34,262.645 862.007,261.312 863.5,260.5 Z"/></g>
<g><path style="opacity:0.932" fill="#f7de69" d="M 1230.5,236.5 C 1232.08,237.936 1233.58,239.602 1235,241.5C 1242.41,254.588 1249.91,267.588 1257.5,280.5C 1255.88,279.962 1254.22,279.629 1252.5,279.5C 1251.41,273.361 1248.07,268.861 1242.5,266C 1243.48,263.295 1242.65,261.128 1240,259.5C 1239.82,255.879 1238.16,253.212 1235,251.5C 1234.24,248.215 1232.91,245.215 1231,242.5C 1230.5,240.527 1230.34,238.527 1230.5,236.5 Z"/></g>
<g><path style="opacity:0.992" fill="#f7dc68" d="M 138.5,266.5 C 139.978,266.238 141.311,266.571 142.5,267.5C 143.336,271.341 145.669,273.341 149.5,273.5C 149.238,274.978 149.571,276.311 150.5,277.5C 153.246,280.238 155.58,283.238 157.5,286.5C 158.748,287.04 159.915,287.707 161,288.5C 161.333,288.167 161.667,287.833 162,287.5C 163.741,291.244 166.241,294.41 169.5,297C 168.594,298.699 168.261,300.533 168.5,302.5C 167.504,302.586 166.671,302.252 166,301.5C 156.642,289.976 147.475,278.309 138.5,266.5 Z"/></g>
<g><path style="opacity:0.027" fill="#f9da6e" d="M 60.5,177.5 C 60.5,219.167 60.5,260.833 60.5,302.5C 41.5289,304.488 22.1955,305.154 2.5,304.5C 2.61071,303.883 2.94404,303.383 3.5,303C 22.1637,302.5 40.8304,302.333 59.5,302.5C 59.168,260.663 59.5014,218.997 60.5,177.5 Z"/></g>
<g><path style="opacity:0.027" fill="#f9da6a" d="M 860.5,302.5 C 860.389,303.117 860.056,303.617 859.5,304C 796.497,304.833 733.497,304.667 670.5,303.5C 668.599,297.387 667.932,291.053 668.5,284.5C 669.833,244.339 670.5,203.839 670.5,163C 670.333,122.5 670.167,82 670,41.5C 669.617,40.944 669.117,40.6107 668.5,40.5C 668.5,39.1667 668.5,37.8333 668.5,36.5C 669.117,36.3893 669.617,36.056 670,35.5C 670.988,38.4245 671.654,41.4245 672,44.5C 672.5,130.499 672.667,216.499 672.5,302.5C 735.167,302.5 797.833,302.5 860.5,302.5 Z"/></g>
<g><path style="opacity:0.027" fill="#f9da6e" d="M 1012.5,295.5 C 1012.01,297.806 1011.67,300.139 1011.5,302.5C 1030.91,302.18 1050.24,302.513 1069.5,303.5C 1050.34,304.662 1031,304.829 1011.5,304C 1008.83,300.838 1009.16,298.005 1012.5,295.5 Z"/></g>
<g><path style="opacity:0.027" fill="#f9db6d" d="M 1265.5,296.5 C 1269.37,298.862 1269.37,301.362 1265.5,304C 1244.38,305.095 1223.38,304.595 1202.5,302.5C 1202.5,301.5 1202.5,300.5 1202.5,299.5C 1202.39,298.883 1202.06,298.383 1201.5,298C 1204.84,297.5 1206.5,299 1206.5,302.5C 1226.17,302.5 1245.83,302.5 1265.5,302.5C 1265.5,300.5 1265.5,298.5 1265.5,296.5 Z"/></g>
</svg>
