<!-- <svg width="396" height="160.506" viewBox="0 -4 369.913 149.933" xmlns="http://www.w3.org/2000/svg">
  <g transform="matrix(4.578954,0,0,4.578954,92.337,13.526)" fill="#eeeeee">
    <path d="M0.8 20V6.002h2.2V20H0.8zM9.3 20L6.6 9.86l-0.04 0V20H4.58V6.002h2.76l2.22 8.38h0.04V6.002h1.96V20H9.3zM12.5 8V6h6.8v2h-2.3v12h-2.2V8h-2.3zM22.46 8v3.9h3.02v2h-3.02v4.1h3.8v2h-6V6.002h6v2h-3.8zM34.46 20h-2.24c-0.12-0.36-0.2-0.58-0.2-1.72v-2.2c0-1.3-0.44-1.78-1.44-1.78h-0.76v5.7h-2.2V6.002h3.32c2.28 0 3.26 1.06 3.26 3.22v1.1c0 1.44-0.46 2.36-1.44 2.82h0.04c1.1 0.46 1.46 1.5 1.46 2.96v2.16c0 0.68 0.02 1.18 0.24 1.7zM30.88 8h-1.06v4.3h0.86c0.82 0 1.32-0.36 1.32-1.48v-1.38c0-1-0.34-1.44-1.12-1.44zM37.86 8v4.22h2.84v2h-2.84v5.78h-2.2V6.002h5.82v2h-3.62zM42.54 20V6.002h2.2v12h3.62v2h-5.82zM49.32 20V6.002h2.2V20h-2.2zM58.42 6h2.04l-2.3 6.8 2.46 7.2h-2.32l-1.78-5.54h-0.04l-1.8 5.54h-2.06l2.46-7.2-2.3-6.8h2.28l1.64 5.16h0.04z"/>
  </g>
</svg> -->

<svg xmlns="http://www.w3.org/2000/svg" xmlns:xlink="http://www.w3.org/1999/xlink" version="1.1" width="920" height="168" style="shape-rendering:geometricPrecision; text-rendering:geometricPrecision; image-rendering:optimizeQuality; fill-rule:evenodd; clip-rule:evenodd">
<g><path style="opacity:1" fill="#332a12" d="M 427.5,34.5 C 426.833,34.5 426.167,34.5 425.5,34.5C 425.5,34.1667 425.5,33.8333 425.5,33.5C 426.833,24.5 426.833,15.5 425.5,6.5C 386.337,5.50144 347.004,5.16811 307.5,5.5C 307.5,5.16667 307.5,4.83333 307.5,4.5C 346.665,3.33546 385.998,3.16879 425.5,4C 426.931,4.46524 428.097,5.29857 429,6.5C 429.667,15.5 429.667,24.5 429,33.5C 428.617,34.056 428.117,34.3893 427.5,34.5 Z"/></g>
<g><path style="opacity:1" fill="#4b3e17" d="M 102.5,9.5 C 102.5,10.8333 102.5,12.1667 102.5,13.5C 101.088,11.3964 100.088,9.06305 99.5,6.5C 89.3194,6.17265 79.3194,6.50598 69.5,7.5C 68.2719,8.30646 67.2719,9.30646 66.5,10.5C 66.5,9.83333 66.5,9.16667 66.5,8.5C 66.4142,7.5041 66.7476,6.67076 67.5,6C 78.5,5.33333 89.5,5.33333 100.5,6C 101.823,6.81595 102.489,7.98261 102.5,9.5 Z"/></g>
<g><path style="opacity:1" fill="#241e0c" d="M 785.5,6.5 C 785.5,6.16667 785.5,5.83333 785.5,5.5C 788.367,5.36922 790.033,6.70256 790.5,9.5C 789.078,8.07501 787.411,7.07501 785.5,6.5 Z"/></g>
<g><path style="opacity:1" fill="#bb9b3a" d="M 785.5,6.5 C 785.5,6.83333 785.5,7.16667 785.5,7.5C 773.988,7.1719 762.654,7.50523 751.5,8.5C 750.624,8.63088 749.957,8.29755 749.5,7.5C 761.482,6.50103 773.482,6.16769 785.5,6.5 Z"/></g>
<g><path style="opacity:1" fill="#6f5b22" d="M 785.5,7.5 C 785.5,7.16667 785.5,6.83333 785.5,6.5C 787.411,7.07501 789.078,8.07501 790.5,9.5C 790.5,10.1667 790.5,10.8333 790.5,11.5C 788.833,10.1667 787.167,8.83333 785.5,7.5 Z"/></g>
<g><path style="opacity:1" fill="#be9d3b" d="M 897.5,13.5 C 895.453,15.5496 893.786,17.883 892.5,20.5C 890.808,22.2048 889.475,24.2048 888.5,26.5C 888.167,26.5 887.833,26.5 887.5,26.5C 890.463,19.6952 894.463,13.5286 899.5,8C 889.151,7.1677 878.817,7.33437 868.5,8.5C 866.812,10.8545 864.812,12.8545 862.5,14.5C 863.5,12.5 864.5,10.5 865.5,8.5C 865.611,7.88258 865.944,7.38258 866.5,7C 878.162,6.50014 889.829,6.33347 901.5,6.5C 900.615,9.06065 899.282,11.394 897.5,13.5 Z"/></g>
<g><path style="opacity:1" fill="#fdd14f" d="M 69.5,7.5 C 79.1667,7.5 88.8333,7.5 98.5,7.5C 98.3398,9.19919 98.5065,10.8659 99,12.5C 101.168,16.5802 103.335,20.5802 105.5,24.5C 106.11,26.4341 107.11,28.1007 108.5,29.5C 108.5,30.8333 108.5,32.1667 108.5,33.5C 108.343,34.8734 108.51,36.2068 109,37.5C 109.886,40.0929 111.386,42.0929 113.5,43.5C 113.833,43.5 114.167,43.5 114.5,43.5C 114.5,44.8333 114.5,46.1667 114.5,47.5C 115.105,52.0317 116.772,56.0317 119.5,59.5C 120.167,60.1667 120.833,60.8333 121.5,61.5C 121.752,65.3267 123.085,68.6601 125.5,71.5C 125.12,73.698 125.787,75.3646 127.5,76.5C 127.12,78.698 127.787,80.3646 129.5,81.5C 129.12,83.698 129.787,85.3646 131.5,86.5C 131.427,88.0269 132.094,89.0269 133.5,89.5C 133.232,91.099 133.566,92.4324 134.5,93.5C 134.5,94.8333 134.5,96.1667 134.5,97.5C 135.876,102.129 137.376,106.796 139,111.5C 139.708,112.381 140.542,113.047 141.5,113.5C 142.167,114.167 142.833,114.833 143.5,115.5C 143.752,119.327 145.085,122.66 147.5,125.5C 147.796,127.403 148.463,129.07 149.5,130.5C 149.12,132.698 149.787,134.365 151.5,135.5C 151.427,137.027 152.094,138.027 153.5,138.5C 153.5,139.167 153.5,139.833 153.5,140.5C 153.53,143.852 154.863,146.518 157.5,148.5C 157.5,149.167 157.5,149.833 157.5,150.5C 158.248,154.006 159.581,157.34 161.5,160.5C 161.5,161.5 161.5,162.5 161.5,163.5C 152.475,163.832 143.475,163.498 134.5,162.5C 133.965,160.739 132.965,159.406 131.5,158.5C 131.573,156.973 130.906,155.973 129.5,155.5C 129.88,153.302 129.213,151.635 127.5,150.5C 127.5,149.833 127.5,149.167 127.5,148.5C 127.477,146.073 126.977,143.74 126,141.5C 125.184,140.177 124.017,139.511 122.5,139.5C 109.684,138.167 96.5174,137.501 83,137.5C 69.8333,137.833 56.6667,138.167 43.5,138.5C 42.8728,139.417 42.5394,140.417 42.5,141.5C 41.4881,145.515 40.4881,149.515 39.5,153.5C 38.8333,153.833 38.1667,154.167 37.5,154.5C 36.1871,157.125 34.5204,159.625 32.5,162C 24.8333,162.667 17.1667,162.667 9.5,162C 8.66337,160.989 8.33003,159.822 8.5,158.5C 9.9973,155.373 10.9973,152.04 11.5,148.5C 14.8391,144.138 16.8391,139.138 17.5,133.5C 18.9744,132.564 19.9744,131.23 20.5,129.5C 23.2364,124.576 25.9031,119.409 28.5,114C 32.5264,105.045 35.8598,95.8779 38.5,86.5C 38.448,84.0971 38.7814,81.7638 39.5,79.5C 40.9744,78.5637 41.9744,77.2303 42.5,75.5C 43.9132,71.7412 45.7465,68.0745 48,64.5C 48.977,62.26 49.477,59.9267 49.5,57.5C 51.9405,54.7303 53.2739,51.397 53.5,47.5C 57.5365,43.4342 59.8699,38.4342 60.5,32.5C 60.448,30.0971 60.7814,27.7638 61.5,25.5C 65.3553,20.1684 68.022,14.1684 69.5,7.5 Z M 93.5,72.5 C 93.7549,74.9674 94.7549,76.9674 96.5,78.5C 96.3433,79.8734 96.51,81.2068 97,82.5C 97.876,84.7582 99.0427,86.7582 100.5,88.5C 100.12,90.698 100.787,92.3646 102.5,93.5C 103.263,97.1368 104.597,100.47 106.5,103.5C 107.167,106.167 107.833,108.833 108.5,111.5C 92.5,111.5 76.5,111.5 60.5,111.5C 60.3893,110.883 60.056,110.383 59.5,110C 63.5245,101.758 66.8579,93.2577 69.5,84.5C 70.9313,83.2196 71.5979,81.5529 71.5,79.5C 73.7943,76.6305 75.1277,73.2971 75.5,69.5C 78.0684,65.1444 80.0684,60.4777 81.5,55.5C 82.4098,53.9812 83.2432,52.3146 84,50.5C 87.1047,58.021 90.2714,65.3543 93.5,72.5 Z"/></g>
<g><path style="opacity:1" fill="#473a17" d="M 219.5,6.5 C 220.167,6.5 220.833,6.5 221.5,6.5C 220.17,58.931 220.17,111.264 221.5,163.5C 230.318,164.493 239.318,164.827 248.5,164.5C 248.833,164.5 249.167,164.5 249.5,164.5C 239.431,165.829 229.265,165.829 219,164.5C 218.168,111.665 218.335,58.9984 219.5,6.5 Z"/></g>
<g><path style="opacity:1" fill="#c19f3c" d="M 221.5,6.5 C 230.167,6.5 238.833,6.5 247.5,6.5C 247.832,59.0027 247.499,111.336 246.5,163.5C 246.832,111.331 246.499,59.3307 245.5,7.5C 238.5,7.5 231.5,7.5 224.5,7.5C 222.504,59.156 221.838,111.156 222.5,163.5C 222.167,163.5 221.833,163.5 221.5,163.5C 220.17,111.264 220.17,58.931 221.5,6.5 Z"/></g>
<g><path style="opacity:1" fill="#f5ca4c" d="M 224.5,7.5 C 224.5,59.1667 224.5,110.833 224.5,162.5C 231.5,162.5 238.5,162.5 245.5,162.5C 245.5,110.833 245.5,59.1667 245.5,7.5C 246.499,59.3307 246.832,111.331 246.5,163.5C 238.5,163.5 230.5,163.5 222.5,163.5C 221.838,111.156 222.504,59.156 224.5,7.5 Z"/></g>
<g><path style="opacity:1" fill="#fed24f" d="M 224.5,7.5 C 231.5,7.5 238.5,7.5 245.5,7.5C 245.5,59.1667 245.5,110.833 245.5,162.5C 238.5,162.5 231.5,162.5 224.5,162.5C 224.5,110.833 224.5,59.1667 224.5,7.5 Z"/></g>
<g><path style="opacity:1" fill="#4a3d17" d="M 219.5,6.5 C 229.569,5.17124 239.735,5.17124 250,6.5C 250.832,59.3349 250.665,112.002 249.5,164.5C 249.167,164.5 248.833,164.5 248.5,164.5C 248.832,111.664 248.499,58.9974 247.5,6.5C 238.833,6.5 230.167,6.5 221.5,6.5C 220.833,6.5 220.167,6.5 219.5,6.5 Z"/></g>
<g><path style="opacity:1" fill="#241d0a" d="M 307.5,4.5 C 307.5,4.83333 307.5,5.16667 307.5,5.5C 306.833,5.5 306.5,5.83333 306.5,6.5C 305.501,58.9974 305.168,111.664 305.5,164.5C 304.335,111.668 304.168,58.6682 305,5.5C 305.671,4.74756 306.504,4.41423 307.5,4.5 Z"/></g>
<g><path style="opacity:1" fill="#6d5a21" d="M 306.5,6.5 C 306.168,59.0027 306.501,111.336 307.5,163.5C 307.5,163.833 307.5,164.167 307.5,164.5C 306.833,164.5 306.167,164.5 305.5,164.5C 305.168,111.664 305.501,58.9974 306.5,6.5 Z"/></g>
<g><path style="opacity:1" fill="#9b8030" d="M 307.5,5.5 C 347.004,5.16811 386.337,5.50144 425.5,6.5C 386.33,6.16812 347.33,6.50145 308.5,7.5C 307.501,59.3307 307.168,111.331 307.5,163.5C 306.501,111.336 306.168,59.0027 306.5,6.5C 306.5,5.83333 306.833,5.5 307.5,5.5 Z"/></g>
<g><path style="opacity:1" fill="#f3c94c" d="M 308.5,7.5 C 308.833,7.5 309.167,7.5 309.5,7.5C 309.333,58.8344 309.5,110.168 310,161.5C 316.744,162.479 323.578,162.812 330.5,162.5C 330.333,142.164 330.5,121.831 331,101.5C 331.383,100.944 331.883,100.611 332.5,100.5C 332.5,121.5 332.5,142.5 332.5,163.5C 324.5,163.5 316.5,163.5 308.5,163.5C 308.5,111.5 308.5,59.5 308.5,7.5 Z"/></g>
<g><path style="opacity:1" fill="#fed24f" d="M 309.5,7.5 C 347.833,7.5 386.167,7.5 424.5,7.5C 424.5,15.5 424.5,23.5 424.5,31.5C 393.995,31.1685 363.662,31.5019 333.5,32.5C 333.5,33.1667 333.5,33.8333 333.5,34.5C 332.17,47.9021 332.17,61.4021 333.5,75C 355.831,75.5 378.164,75.6666 400.5,75.5C 400.5,83.1667 400.5,90.8333 400.5,98.5C 378.327,98.1693 356.327,98.5026 334.5,99.5C 333.833,99.5 333.5,99.8333 333.5,100.5C 333.167,100.5 332.833,100.5 332.5,100.5C 331.883,100.611 331.383,100.944 331,101.5C 330.5,121.831 330.333,142.164 330.5,162.5C 323.578,162.812 316.744,162.479 310,161.5C 309.5,110.168 309.333,58.8344 309.5,7.5 Z"/></g>
<g><path style="opacity:1" fill="#433816" d="M 511.5,5.5 C 511.5,5.83333 511.5,6.16667 511.5,6.5C 502.249,6.18215 493.083,6.51549 484,7.5C 483.168,59.6683 483.335,111.668 484.5,163.5C 484.5,163.833 484.5,164.167 484.5,164.5C 483.833,164.5 483.167,164.5 482.5,164.5C 481.335,112.002 481.168,59.3349 482,6.5C 491.75,5.51438 501.584,5.18105 511.5,5.5 Z"/></g>
<g><path style="opacity:1" fill="#bb9b3a" d="M 511.5,6.5 C 511.5,6.83333 511.5,7.16667 511.5,7.5C 511.5,50.5 511.5,93.5 511.5,136.5C 511.167,136.5 510.833,136.5 510.5,136.5C 509.833,93.5 509.167,50.5 508.5,7.5C 501.167,7.5 493.833,7.5 486.5,7.5C 485.501,59.3307 485.168,111.331 485.5,163.5C 485.167,163.5 484.833,163.5 484.5,163.5C 483.335,111.668 483.168,59.6683 484,7.5C 493.083,6.51549 502.249,6.18215 511.5,6.5 Z"/></g>
<g><path style="opacity:1" fill="#fed24f" d="M 486.5,7.5 C 493.833,7.5 501.167,7.5 508.5,7.5C 508.333,50.8346 508.5,94.1679 509,137.5C 509.383,138.056 509.883,138.389 510.5,138.5C 540.329,139.498 570.329,139.831 600.5,139.5C 600.5,147.167 600.5,154.833 600.5,162.5C 562.594,162.83 524.761,162.496 487,161.5C 486.5,110.168 486.333,58.8344 486.5,7.5 Z"/></g>
<g><path style="opacity:1" fill="#f1c74b" d="M 508.5,7.5 C 509.167,50.5 509.833,93.5 510.5,136.5C 510.5,137.167 510.5,137.833 510.5,138.5C 509.883,138.389 509.383,138.056 509,137.5C 508.5,94.1679 508.333,50.8346 508.5,7.5 Z"/></g>
<g><path style="opacity:1" fill="#57481b" d="M 511.5,7.5 C 512.167,50.1667 512.833,92.8333 513.5,135.5C 513.5,135.833 513.5,136.167 513.5,136.5C 512.833,136.5 512.167,136.5 511.5,136.5C 511.5,93.5 511.5,50.5 511.5,7.5 Z"/></g>
<g><path style="opacity:1" fill="#25200c" d="M 511.5,5.5 C 512.117,5.61071 512.617,5.94404 513,6.5C 513.172,49.5709 513.672,92.5709 514.5,135.5C 514.167,135.5 513.833,135.5 513.5,135.5C 512.833,92.8333 512.167,50.1667 511.5,7.5C 511.5,7.16667 511.5,6.83333 511.5,6.5C 511.5,6.16667 511.5,5.83333 511.5,5.5 Z"/></g>
<g><path style="opacity:1" fill="#433816" d="M 689.5,5.5 C 689.5,5.83333 689.5,6.16667 689.5,6.5C 689.167,6.5 688.833,6.5 688.5,6.5C 679.582,6.18277 670.749,6.5161 662,7.5C 661.168,59.6683 661.335,111.668 662.5,163.5C 662.5,163.833 662.5,164.167 662.5,164.5C 661.833,164.5 661.167,164.5 660.5,164.5C 659.335,112.002 659.168,59.3349 660,6.5C 669.75,5.51438 679.584,5.18105 689.5,5.5 Z"/></g>
<g><path style="opacity:1" fill="#c2a03c" d="M 688.5,6.5 C 688.832,59.0027 688.499,111.336 687.5,163.5C 687.832,111.331 687.499,59.3307 686.5,7.5C 679.167,7.5 671.833,7.5 664.5,7.5C 663.501,59.3307 663.168,111.331 663.5,163.5C 663.167,163.5 662.833,163.5 662.5,163.5C 661.335,111.668 661.168,59.6683 662,7.5C 670.749,6.5161 679.582,6.18277 688.5,6.5 Z"/></g>
<g><path style="opacity:1" fill="#efc54a" d="M 664.5,7.5 C 664.333,58.8344 664.5,110.168 665,161.5C 672.079,162.48 679.245,162.813 686.5,162.5C 686.5,110.833 686.5,59.1667 686.5,7.5C 687.499,59.3307 687.832,111.331 687.5,163.5C 679.5,163.5 671.5,163.5 663.5,163.5C 663.168,111.331 663.501,59.3307 664.5,7.5 Z"/></g>
<g><path style="opacity:1" fill="#fed24f" d="M 664.5,7.5 C 671.833,7.5 679.167,7.5 686.5,7.5C 686.5,59.1667 686.5,110.833 686.5,162.5C 679.245,162.813 672.079,162.48 665,161.5C 664.5,110.168 664.333,58.8344 664.5,7.5 Z"/></g>
<g><path style="opacity:1" fill="#a38632" d="M 688.5,6.5 C 688.833,6.5 689.167,6.5 689.5,6.5C 689.5,6.83333 689.5,7.16667 689.5,7.5C 689.5,59.8333 689.5,112.167 689.5,164.5C 680.5,164.5 671.5,164.5 662.5,164.5C 662.5,164.167 662.5,163.833 662.5,163.5C 662.833,163.5 663.167,163.5 663.5,163.5C 671.5,163.5 679.5,163.5 687.5,163.5C 688.499,111.336 688.832,59.0027 688.5,6.5 Z"/></g>
<g><path style="opacity:1" fill="#25200c" d="M 689.5,5.5 C 690.117,5.61071 690.617,5.94404 691,6.5C 691.832,59.3349 691.665,112.002 690.5,164.5C 690.832,111.997 690.499,59.664 689.5,7.5C 689.5,7.16667 689.5,6.83333 689.5,6.5C 689.5,6.16667 689.5,5.83333 689.5,5.5 Z"/></g>
<g><path style="opacity:1" fill="#fcd14f" d="M 751.5,8.5 C 762.654,7.50523 773.988,7.1719 785.5,7.5C 786.419,10.0892 788.086,12.0892 790.5,13.5C 791.08,15.7488 792.413,17.4154 794.5,18.5C 795.757,21.4274 797.757,23.7607 800.5,25.5C 801.08,27.7488 802.413,29.4154 804.5,30.5C 805.757,33.4274 807.757,35.7607 810.5,37.5C 811.08,39.7488 812.413,41.4154 814.5,42.5C 815.757,45.4274 817.757,47.7607 820.5,49.5C 826.085,60.1316 831.419,59.7983 836.5,48.5C 841.83,40.5337 847.664,32.8671 854,25.5C 854.791,24.255 855.291,22.9217 855.5,21.5C 857.587,20.4154 858.92,18.7488 859.5,16.5C 860.5,15.8333 861.5,15.1667 862.5,14.5C 864.812,12.8545 866.812,10.8545 868.5,8.5C 878.817,7.33437 889.151,7.1677 899.5,8C 894.463,13.5286 890.463,19.6952 887.5,26.5C 887.167,26.5 886.833,26.5 886.5,26.5C 883.969,28.4874 881.636,30.8207 879.5,33.5C 878.614,34.325 878.281,35.325 878.5,36.5C 872.802,42.5469 867.802,49.2136 863.5,56.5C 862.5,57.8333 861.5,59.1667 860.5,60.5C 857.135,63.2068 854.468,66.5401 852.5,70.5C 850.925,72.5253 849.092,74.5253 847,76.5C 845.664,80.562 846.831,83.562 850.5,85.5C 851.08,87.7488 852.413,89.4154 854.5,90.5C 855.757,93.4274 857.757,95.7607 860.5,97.5C 861.08,99.7488 862.413,101.415 864.5,102.5C 865.757,105.427 867.757,107.761 870.5,109.5C 871.08,111.749 872.413,113.415 874.5,114.5C 875.757,117.427 877.757,119.761 880.5,121.5C 881.08,123.749 882.413,125.415 884.5,126.5C 885.757,129.427 887.757,131.761 890.5,133.5C 891.08,135.749 892.413,137.415 894.5,138.5C 896.5,140.167 898.5,141.833 900.5,143.5C 900.5,144.167 900.5,144.833 900.5,145.5C 901.08,147.749 902.413,149.415 904.5,150.5C 906.5,152.167 908.5,153.833 910.5,155.5C 911.08,157.749 912.413,159.415 914.5,160.5C 914.414,161.496 914.748,162.329 915.5,163C 903.992,163.826 892.659,163.659 881.5,162.5C 880.317,158.308 877.65,155.975 873.5,155.5C 873.5,154.833 873.5,154.167 873.5,153.5C 872.2,150.243 870.366,147.243 868,144.5C 866.644,143.62 865.144,143.286 863.5,143.5C 863.5,142.833 863.5,142.167 863.5,141.5C 862.2,138.243 860.366,135.243 858,132.5C 856.644,131.62 855.144,131.286 853.5,131.5C 853.5,130.833 853.5,130.167 853.5,129.5C 851.946,125.404 849.612,121.737 846.5,118.5C 845.423,117.295 844.09,116.628 842.5,116.5C 841.5,115.833 840.5,115.167 839.5,114.5C 839.167,113.833 838.833,113.167 838.5,112.5C 837.056,108.456 834.722,104.956 831.5,102C 830.167,101.333 828.833,101.333 827.5,102C 822.525,107.882 818.191,114.049 814.5,120.5C 808.584,127.266 802.751,134.266 797,141.5C 796.517,142.448 796.351,143.448 796.5,144.5C 790.622,149.886 785.622,156.052 781.5,163C 770.5,163.667 759.5,163.667 748.5,163C 749.252,162.329 749.586,161.496 749.5,160.5C 750.906,160.027 751.573,159.027 751.5,157.5C 754.194,155.473 756.527,153.139 758.5,150.5C 762.592,146.742 765.926,142.409 768.5,137.5C 771.083,134.003 773.416,130.336 775.5,126.5C 776.906,126.027 777.573,125.027 777.5,123.5C 779.587,122.415 780.92,120.749 781.5,118.5C 788.738,110.352 795.738,102.019 802.5,93.5C 805.49,90.0095 808.657,86.6761 812,83.5C 812.667,81.5 812.667,79.5 812,77.5C 809.773,75.3932 807.773,73.0599 806,70.5C 804.644,69.6198 803.144,69.2865 801.5,69.5C 801.5,68.8333 801.5,68.1667 801.5,67.5C 800.2,64.2433 798.366,61.2433 796,58.5C 794.644,57.6198 793.144,57.2865 791.5,57.5C 791.5,56.8333 791.5,56.1667 791.5,55.5C 790.2,52.2433 788.366,49.2433 786,46.5C 784.644,45.6198 783.144,45.2865 781.5,45.5C 781.5,44.8333 781.5,44.1667 781.5,43.5C 780.2,40.2433 778.366,37.2433 776,34.5C 774.644,33.6198 773.144,33.2865 771.5,33.5C 771.5,32.8333 771.5,32.1667 771.5,31.5C 769.946,27.4036 767.612,23.7369 764.5,20.5C 763.423,19.2949 762.09,18.6282 760.5,18.5C 759.5,17.8333 758.5,17.1667 757.5,16.5C 757.167,15.8333 756.833,15.1667 756.5,14.5C 755.753,11.6385 754.086,9.63849 751.5,8.5 Z"/></g>
<g><path style="opacity:1" fill="#cba73f" d="M 785.5,7.5 C 787.167,8.83333 788.833,10.1667 790.5,11.5C 790.5,12.1667 790.5,12.8333 790.5,13.5C 788.086,12.0892 786.419,10.0892 785.5,7.5 Z"/></g>
<g><path style="opacity:1" fill="#413615" d="M 785.5,5.5 C 785.5,5.83333 785.5,6.16667 785.5,6.5C 773.482,6.16769 761.482,6.50103 749.5,7.5C 749.957,8.29755 750.624,8.63088 751.5,8.5C 752.701,10.9095 754.367,12.9095 756.5,14.5C 756.833,15.1667 757.167,15.8333 757.5,16.5C 756.833,16.5 756.167,16.5 755.5,16.5C 753.233,13.7291 750.733,11.0625 748,8.5C 747.383,7.55085 747.549,6.71752 748.5,6C 760.829,5.50012 773.162,5.33346 785.5,5.5 Z"/></g>
<g><path style="opacity:1" fill="#c8a53e" d="M 69.5,7.5 C 79.3194,6.50598 89.3194,6.17265 99.5,6.5C 100.088,9.06305 101.088,11.3964 102.5,13.5C 103.434,14.5676 103.768,15.901 103.5,17.5C 103.427,19.0269 104.094,20.0269 105.5,20.5C 105.5,21.1667 105.5,21.8333 105.5,22.5C 105.5,23.1667 105.5,23.8333 105.5,24.5C 103.335,20.5802 101.168,16.5802 99,12.5C 98.5065,10.8659 98.3398,9.19919 98.5,7.5C 88.8333,7.5 79.1667,7.5 69.5,7.5 Z"/></g>
<g><path style="opacity:1" fill="#b59538" d="M 751.5,8.5 C 754.086,9.63849 755.753,11.6385 756.5,14.5C 754.367,12.9095 752.701,10.9095 751.5,8.5 Z"/></g>
<g><path style="opacity:1" fill="#7e6827" d="M 865.5,8.5 C 864.5,10.5 863.5,12.5 862.5,14.5C 861.5,15.1667 860.5,15.8333 859.5,16.5C 860.569,14.0313 861.902,11.6979 863.5,9.5C 864.167,9.16667 864.833,8.83333 865.5,8.5 Z"/></g>
<g><path style="opacity:1" fill="#3e3414" d="M 66.5,8.5 C 66.5,9.16667 66.5,9.83333 66.5,10.5C 65.0104,15.6356 63.3437,20.6356 61.5,25.5C 59.4829,28.8991 57.8162,32.5657 56.5,36.5C 55.8333,36.8333 55.1667,37.1667 54.5,37.5C 54.3433,36.1266 54.51,34.7932 55,33.5C 58.5653,24.9376 62.3986,16.6043 66.5,8.5 Z"/></g>
<g><path style="opacity:1" fill="#2a230e" d="M 790.5,9.5 C 792.587,10.5846 793.92,12.2512 794.5,14.5C 793.167,13.5 791.833,12.5 790.5,11.5C 790.5,10.8333 790.5,10.1667 790.5,9.5 Z"/></g>
<g><path style="opacity:1" fill="#3e3414" d="M 896.5,17.5 C 896.833,16.1667 897.167,14.8333 897.5,13.5C 899.282,11.394 900.615,9.06065 901.5,6.5C 889.829,6.33347 878.162,6.50014 866.5,7C 865.944,7.38258 865.611,7.88258 865.5,8.5C 864.833,8.83333 864.167,9.16667 863.5,9.5C 863.5,9.16667 863.5,8.83333 863.5,8.5C 863.953,7.54163 864.619,6.7083 865.5,6C 878.167,5.33333 890.833,5.33333 903.5,6C 904.451,6.71752 904.617,7.55085 904,8.5C 901.636,11.6902 899.136,14.6902 896.5,17.5 Z"/></g>
<g><path style="opacity:1" fill="#b49538" d="M 69.5,7.5 C 68.022,14.1684 65.3553,20.1684 61.5,25.5C 63.3437,20.6356 65.0104,15.6356 66.5,10.5C 67.2719,9.30646 68.2719,8.30646 69.5,7.5 Z"/></g>
<g><path style="opacity:1" fill="#776225" d="M 790.5,11.5 C 791.833,12.5 793.167,13.5 794.5,14.5C 794.5,15.1667 794.5,15.8333 794.5,16.5C 793.167,15.5 791.833,14.5 790.5,13.5C 790.5,12.8333 790.5,12.1667 790.5,11.5 Z"/></g>
<g><path style="opacity:1" fill="#cda940" d="M 790.5,13.5 C 791.833,14.5 793.167,15.5 794.5,16.5C 794.5,17.1667 794.5,17.8333 794.5,18.5C 792.413,17.4154 791.08,15.7488 790.5,13.5 Z"/></g>
<g><path style="opacity:1" fill="#2d250f" d="M 794.5,14.5 C 797.243,16.2393 799.243,18.5726 800.5,21.5C 798.5,19.8333 796.5,18.1667 794.5,16.5C 794.5,15.8333 794.5,15.1667 794.5,14.5 Z"/></g>
<g><path style="opacity:1" fill="#302810" d="M 863.5,8.5 C 863.5,8.83333 863.5,9.16667 863.5,9.5C 861.902,11.6979 860.569,14.0313 859.5,16.5C 857.413,17.5846 856.08,19.2512 855.5,21.5C 847.441,30.6194 840.108,40.2861 833.5,50.5C 831.413,51.5846 830.08,53.2512 829.5,55.5C 827.041,55.69 825.374,54.69 824.5,52.5C 824.5,51.8333 824.5,51.1667 824.5,50.5C 825.794,51.2899 826.961,52.2899 828,53.5C 839.853,38.4307 851.686,23.4307 863.5,8.5 Z"/></g>
<g><path style="opacity:1" fill="#67551f" d="M 897.5,13.5 C 897.167,14.8333 896.833,16.1667 896.5,17.5C 895.167,18.5 893.833,19.5 892.5,20.5C 893.786,17.883 895.453,15.5496 897.5,13.5 Z"/></g>
<g><path style="opacity:1" fill="#816a28" d="M 103.5,17.5 C 104.906,17.9731 105.573,18.9731 105.5,20.5C 104.094,20.0269 103.427,19.0269 103.5,17.5 Z"/></g>
<g><path style="opacity:1" fill="#7a6526" d="M 757.5,16.5 C 758.5,17.1667 759.5,17.8333 760.5,18.5C 761.11,19.391 761.443,20.391 761.5,21.5C 759.413,20.4154 758.08,18.7488 757.5,16.5 Z"/></g>
<g><path style="opacity:1" fill="#ceaa40" d="M 794.5,18.5 C 796.5,20.1667 798.5,21.8333 800.5,23.5C 800.5,24.1667 800.5,24.8333 800.5,25.5C 797.757,23.7607 795.757,21.4274 794.5,18.5 Z"/></g>
<g><path style="opacity:1" fill="#816a28" d="M 859.5,16.5 C 858.92,18.7488 857.587,20.4154 855.5,21.5C 856.08,19.2512 857.413,17.5846 859.5,16.5 Z"/></g>
<g><path style="opacity:1" fill="#776225" d="M 794.5,16.5 C 796.5,18.1667 798.5,19.8333 800.5,21.5C 800.5,22.1667 800.5,22.8333 800.5,23.5C 798.5,21.8333 796.5,20.1667 794.5,18.5C 794.5,17.8333 794.5,17.1667 794.5,16.5 Z"/></g>
<g><path style="opacity:1" fill="#d3ae41" d="M 760.5,18.5 C 762.09,18.6282 763.423,19.2949 764.5,20.5C 767.612,23.7369 769.946,27.4036 771.5,31.5C 770.167,30.5 768.833,29.5 767.5,28.5C 765.845,25.847 763.845,23.5136 761.5,21.5C 761.443,20.391 761.11,19.391 760.5,18.5 Z"/></g>
<g><path style="opacity:1" fill="#2a230e" d="M 800.5,21.5 C 802.587,22.5846 803.92,24.2512 804.5,26.5C 803.167,25.5 801.833,24.5 800.5,23.5C 800.5,22.8333 800.5,22.1667 800.5,21.5 Z"/></g>
<g><path style="opacity:1" fill="#776225" d="M 800.5,23.5 C 801.833,24.5 803.167,25.5 804.5,26.5C 804.5,27.1667 804.5,27.8333 804.5,28.5C 803.167,27.5 801.833,26.5 800.5,25.5C 800.5,24.8333 800.5,24.1667 800.5,23.5 Z"/></g>
<g><path style="opacity:1" fill="#977d2f" d="M 105.5,22.5 C 107.834,24.1757 108.834,26.509 108.5,29.5C 107.11,28.1007 106.11,26.4341 105.5,24.5C 105.5,23.8333 105.5,23.1667 105.5,22.5 Z"/></g>
<g><path style="opacity:1" fill="#cda940" d="M 800.5,25.5 C 801.833,26.5 803.167,27.5 804.5,28.5C 804.5,29.1667 804.5,29.8333 804.5,30.5C 802.413,29.4154 801.08,27.7488 800.5,25.5 Z"/></g>
<g><path style="opacity:1" fill="#2d2510" d="M 896.5,17.5 C 893.891,22.383 890.557,26.7163 886.5,30.5C 886.733,28.9382 887.4,27.6049 888.5,26.5C 889.475,24.2048 890.808,22.2048 892.5,20.5C 893.833,19.5 895.167,18.5 896.5,17.5 Z"/></g>
<g><path style="opacity:1" fill="#2d250f" d="M 804.5,26.5 C 807.243,28.2393 809.243,30.5726 810.5,33.5C 808.5,31.8333 806.5,30.1667 804.5,28.5C 804.5,27.8333 804.5,27.1667 804.5,26.5 Z"/></g>
<g><path style="opacity:1" fill="#e2bb46" d="M 308.5,7.5 C 347.33,6.50145 386.33,6.16812 425.5,6.5C 425.5,15.1667 425.5,23.8333 425.5,32.5C 394.833,32.5 364.167,32.5 333.5,32.5C 363.662,31.5019 393.995,31.1685 424.5,31.5C 424.5,23.5 424.5,15.5 424.5,7.5C 386.167,7.5 347.833,7.5 309.5,7.5C 309.167,7.5 308.833,7.5 308.5,7.5 Z"/></g>
<g><path style="opacity:1" fill="#7a6526" d="M 767.5,28.5 C 768.833,29.5 770.167,30.5 771.5,31.5C 771.5,32.1667 771.5,32.8333 771.5,33.5C 769.413,32.4154 768.08,30.7488 767.5,28.5 Z"/></g>
<g><path style="opacity:1" fill="#ceaa40" d="M 804.5,30.5 C 806.5,32.1667 808.5,33.8333 810.5,35.5C 810.5,36.1667 810.5,36.8333 810.5,37.5C 807.757,35.7607 805.757,33.4274 804.5,30.5 Z"/></g>
<g><path style="opacity:1" fill="#8b732b" d="M 855.5,21.5 C 855.291,22.9217 854.791,24.255 854,25.5C 847.664,32.8671 841.83,40.5337 836.5,48.5C 835.5,49.1667 834.5,49.8333 833.5,50.5C 840.108,40.2861 847.441,30.6194 855.5,21.5 Z"/></g>
<g><path style="opacity:1" fill="#64521f" d="M 886.5,26.5 C 886.833,26.5 887.167,26.5 887.5,26.5C 887.833,26.5 888.167,26.5 888.5,26.5C 887.4,27.6049 886.733,28.9382 886.5,30.5C 885.5,31.1667 884.5,31.8333 883.5,32.5C 884.471,30.5168 885.471,28.5168 886.5,26.5 Z"/></g>
<g><path style="opacity:1" fill="#a18632" d="M 108.5,29.5 C 110.897,32.309 112.23,35.6424 112.5,39.5C 110.744,37.751 109.411,35.751 108.5,33.5C 108.5,32.1667 108.5,30.8333 108.5,29.5 Z"/></g>
<g><path style="opacity:1" fill="#c7a53e" d="M 425.5,6.5 C 426.833,15.5 426.833,24.5 425.5,33.5C 394.76,33.1748 364.093,33.5081 333.5,34.5C 333.5,33.8333 333.5,33.1667 333.5,32.5C 364.167,32.5 394.833,32.5 425.5,32.5C 425.5,23.8333 425.5,15.1667 425.5,6.5 Z"/></g>
<g><path style="opacity:1" fill="#776225" d="M 804.5,28.5 C 806.5,30.1667 808.5,31.8333 810.5,33.5C 810.5,34.1667 810.5,34.8333 810.5,35.5C 808.5,33.8333 806.5,32.1667 804.5,30.5C 804.5,29.8333 804.5,29.1667 804.5,28.5 Z"/></g>
<g><path style="opacity:1" fill="#8b732b" d="M 425.5,33.5 C 425.5,33.8333 425.5,34.1667 425.5,34.5C 395.498,34.3334 365.498,34.5 335.5,35C 334.17,47.2646 334.17,59.4313 335.5,71.5C 335.5,71.8333 335.5,72.1667 335.5,72.5C 334.833,72.5 334.167,72.5 333.5,72.5C 333.5,59.8333 333.5,47.1667 333.5,34.5C 364.093,33.5081 394.76,33.1748 425.5,33.5 Z"/></g>
<g><path style="opacity:1" fill="#d0ac41" d="M 771.5,33.5 C 773.144,33.2865 774.644,33.6198 776,34.5C 778.366,37.2433 780.2,40.2433 781.5,43.5C 780.167,42.5 778.833,41.5 777.5,40.5C 775.845,37.847 773.845,35.5136 771.5,33.5 Z"/></g>
<g><path style="opacity:1" fill="#af9036" d="M 61.5,25.5 C 60.7814,27.7638 60.448,30.0971 60.5,32.5C 58.744,34.249 57.4106,36.249 56.5,38.5C 56.5,37.8333 56.5,37.1667 56.5,36.5C 57.8162,32.5657 59.4829,28.8991 61.5,25.5 Z"/></g>
<g><path style="opacity:1" fill="#e4bc47" d="M 60.5,32.5 C 59.8699,38.4342 57.5365,43.4342 53.5,47.5C 53.5,46.1667 53.5,44.8333 53.5,43.5C 54.6873,41.9275 55.6873,40.2608 56.5,38.5C 57.4106,36.249 58.744,34.249 60.5,32.5 Z"/></g>
<g><path style="opacity:1" fill="#312810" d="M 425.5,34.5 C 426.167,34.5 426.833,34.5 427.5,34.5C 397.338,35.4981 367.005,35.8315 336.5,35.5C 336.188,47.5803 336.521,59.5803 337.5,71.5C 336.833,71.5 336.167,71.5 335.5,71.5C 334.17,59.4313 334.17,47.2646 335.5,35C 365.498,34.5 395.498,34.3334 425.5,34.5 Z"/></g>
<g><path style="opacity:1" fill="#cda940" d="M 886.5,26.5 C 885.471,28.5168 884.471,30.5168 883.5,32.5C 882.167,32.5 881.5,33.1667 881.5,34.5C 880.5,35.1667 879.5,35.8333 878.5,36.5C 878.281,35.325 878.614,34.325 879.5,33.5C 881.636,30.8207 883.969,28.4874 886.5,26.5 Z"/></g>
<g><path style="opacity:1" fill="#2a230e" d="M 810.5,33.5 C 812.587,34.5846 813.92,36.2512 814.5,38.5C 813.167,37.5 811.833,36.5 810.5,35.5C 810.5,34.8333 810.5,34.1667 810.5,33.5 Z"/></g>
<g><path style="opacity:1" fill="#776225" d="M 810.5,35.5 C 811.833,36.5 813.167,37.5 814.5,38.5C 814.5,39.1667 814.5,39.8333 814.5,40.5C 813.167,39.5 811.833,38.5 810.5,37.5C 810.5,36.8333 810.5,36.1667 810.5,35.5 Z"/></g>
<g><path style="opacity:1" fill="#806a27" d="M 881.5,34.5 C 880.92,36.7488 879.587,38.4154 877.5,39.5C 877.557,38.391 877.89,37.391 878.5,36.5C 879.5,35.8333 880.5,35.1667 881.5,34.5 Z"/></g>
<g><path style="opacity:1" fill="#cda940" d="M 810.5,37.5 C 811.833,38.5 813.167,39.5 814.5,40.5C 814.5,41.1667 814.5,41.8333 814.5,42.5C 812.413,41.4154 811.08,39.7488 810.5,37.5 Z"/></g>
<g><path style="opacity:1" fill="#322a12" d="M 886.5,30.5 C 881.892,38.048 876.559,45.048 870.5,51.5C 870.833,50.1667 871.167,48.8333 871.5,47.5C 873.115,44.5505 875.115,41.8838 877.5,39.5C 879.587,38.4154 880.92,36.7488 881.5,34.5C 881.5,33.1667 882.167,32.5 883.5,32.5C 884.5,31.8333 885.5,31.1667 886.5,30.5 Z"/></g>
<g><path style="opacity:1" fill="#2d250f" d="M 814.5,38.5 C 817.243,40.2393 819.243,42.5726 820.5,45.5C 818.5,43.8333 816.5,42.1667 814.5,40.5C 814.5,39.8333 814.5,39.1667 814.5,38.5 Z"/></g>
<g><path style="opacity:1" fill="#dbb544" d="M 108.5,33.5 C 109.411,35.751 110.744,37.751 112.5,39.5C 113.434,40.5676 113.768,41.901 113.5,43.5C 111.386,42.0929 109.886,40.0929 109,37.5C 108.51,36.2068 108.343,34.8734 108.5,33.5 Z"/></g>
<g><path style="opacity:1" fill="#766225" d="M 56.5,36.5 C 56.5,37.1667 56.5,37.8333 56.5,38.5C 55.6873,40.2608 54.6873,41.9275 53.5,43.5C 53.5172,41.4352 53.8505,39.4352 54.5,37.5C 55.1667,37.1667 55.8333,36.8333 56.5,36.5 Z"/></g>
<g><path style="opacity:1" fill="#352c12" d="M 102.5,9.5 C 114.204,36.9296 125.538,64.5962 136.5,92.5C 135.272,91.6935 134.272,90.6935 133.5,89.5C 133.573,87.9731 132.906,86.9731 131.5,86.5C 131.88,84.302 131.213,82.6354 129.5,81.5C 129.88,79.302 129.213,77.6354 127.5,76.5C 127.88,74.302 127.213,72.6354 125.5,71.5C 125.248,67.6733 123.915,64.3399 121.5,61.5C 121.741,59.1016 121.074,57.1016 119.5,55.5C 118.594,51.0986 116.928,47.0986 114.5,43.5C 114.167,43.5 113.833,43.5 113.5,43.5C 113.768,41.901 113.434,40.5676 112.5,39.5C 112.23,35.6424 110.897,32.309 108.5,29.5C 108.834,26.509 107.834,24.1757 105.5,22.5C 105.5,21.8333 105.5,21.1667 105.5,20.5C 105.573,18.9731 104.906,17.9731 103.5,17.5C 103.768,15.901 103.434,14.5676 102.5,13.5C 102.5,12.1667 102.5,10.8333 102.5,9.5 Z"/></g>
<g><path style="opacity:1" fill="#2a230e" d="M 54.5,37.5 C 53.8505,39.4352 53.5172,41.4352 53.5,43.5C 52.1429,44.5903 51.1429,45.9236 50.5,47.5C 50.3433,46.1266 50.51,44.7932 51,43.5C 51.876,41.2418 53.0427,39.2418 54.5,37.5 Z"/></g>
<g><path style="opacity:1" fill="#7a6526" d="M 777.5,40.5 C 778.833,41.5 780.167,42.5 781.5,43.5C 781.5,44.1667 781.5,44.8333 781.5,45.5C 779.413,44.4154 778.08,42.7488 777.5,40.5 Z"/></g>
<g><path style="opacity:1" fill="#ceaa40" d="M 814.5,42.5 C 816.5,44.1667 818.5,45.8333 820.5,47.5C 820.5,48.1667 820.5,48.8333 820.5,49.5C 817.757,47.7607 815.757,45.4274 814.5,42.5 Z"/></g>
<g><path style="opacity:1" fill="#776225" d="M 814.5,40.5 C 816.5,42.1667 818.5,43.8333 820.5,45.5C 820.5,46.1667 820.5,46.8333 820.5,47.5C 818.5,45.8333 816.5,44.1667 814.5,42.5C 814.5,41.8333 814.5,41.1667 814.5,40.5 Z"/></g>
<g><path style="opacity:1" fill="#d0ac41" d="M 781.5,45.5 C 783.144,45.2865 784.644,45.6198 786,46.5C 788.366,49.2433 790.2,52.2433 791.5,55.5C 790.167,54.5 788.833,53.5 787.5,52.5C 785.845,49.847 783.845,47.5136 781.5,45.5 Z"/></g>
<g><path style="opacity:1" fill="#7e6827" d="M 53.5,43.5 C 53.5,44.8333 53.5,46.1667 53.5,47.5C 51.9862,49.364 50.6528,51.364 49.5,53.5C 49.5172,51.4352 49.8505,49.4352 50.5,47.5C 51.1429,45.9236 52.1429,44.5903 53.5,43.5 Z"/></g>
<g><path style="opacity:1" fill="#836d28" d="M 85.5,46.5 C 86.1667,47.1667 86.8333,47.8333 87.5,48.5C 87.5,49.8333 87.5,51.1667 87.5,52.5C 86.5788,51.019 85.4121,49.6856 84,48.5C 83.0979,48.7432 82.2646,49.0766 81.5,49.5C 81.6941,47.0882 83.0274,46.0882 85.5,46.5 Z"/></g>
<g><path style="opacity:1" fill="#8a732b" d="M 114.5,43.5 C 116.928,47.0986 118.594,51.0986 119.5,55.5C 117.837,52.8707 116.171,50.204 114.5,47.5C 114.5,46.1667 114.5,44.8333 114.5,43.5 Z"/></g>
<g><path style="opacity:1" fill="#2a230e" d="M 820.5,45.5 C 822.587,46.5846 823.92,48.2512 824.5,50.5C 823.167,49.5 821.833,48.5 820.5,47.5C 820.5,46.8333 820.5,46.1667 820.5,45.5 Z"/></g>
<g><path style="opacity:1" fill="#776225" d="M 820.5,47.5 C 821.833,48.5 823.167,49.5 824.5,50.5C 824.5,51.1667 824.5,51.8333 824.5,52.5C 823.167,51.5 821.833,50.5 820.5,49.5C 820.5,48.8333 820.5,48.1667 820.5,47.5 Z"/></g>
<g><path style="opacity:1" fill="#dbb544" d="M 114.5,47.5 C 116.171,50.204 117.837,52.8707 119.5,55.5C 119.5,56.8333 119.5,58.1667 119.5,59.5C 116.772,56.0317 115.105,52.0317 114.5,47.5 Z"/></g>
<g><path style="opacity:1" fill="#c6a33e" d="M 836.5,48.5 C 831.419,59.7983 826.085,60.1316 820.5,49.5C 821.833,50.5 823.167,51.5 824.5,52.5C 825.374,54.69 827.041,55.69 829.5,55.5C 831.587,54.4154 832.92,52.7488 833.5,50.5C 834.5,49.8333 835.5,49.1667 836.5,48.5 Z"/></g>
<g><path style="opacity:1" fill="#be9d3b" d="M 878.5,36.5 C 877.89,37.391 877.557,38.391 877.5,39.5C 875.115,41.8838 873.115,44.5505 871.5,47.5C 869.674,49.1475 868.34,51.1475 867.5,53.5C 866.5,53.8333 865.833,54.5 865.5,55.5C 864.833,55.8333 864.167,56.1667 863.5,56.5C 867.802,49.2136 872.802,42.5469 878.5,36.5 Z"/></g>
<g><path style="opacity:1" fill="#65531f" d="M 871.5,47.5 C 871.167,48.8333 870.833,50.1667 870.5,51.5C 869.5,52.1667 868.5,52.8333 867.5,53.5C 868.34,51.1475 869.674,49.1475 871.5,47.5 Z"/></g>
<g><path style="opacity:1" fill="#d0ac41" d="M 85.5,46.5 C 83.0274,46.0882 81.6941,47.0882 81.5,49.5C 81.5,50.1667 81.5,50.8333 81.5,51.5C 79.5797,54.3388 77.9131,57.3388 76.5,60.5C 77.0735,54.8682 78.5735,49.5349 81,44.5C 82.3561,43.6198 83.8561,43.2865 85.5,43.5C 85.5,44.5 85.5,45.5 85.5,46.5 Z"/></g>
<g><path style="opacity:1" fill="#806a28" d="M 833.5,50.5 C 832.92,52.7488 831.587,54.4154 829.5,55.5C 830.08,53.2512 831.413,51.5846 833.5,50.5 Z"/></g>
<g><path style="opacity:1" fill="#d4af42" d="M 53.5,47.5 C 53.2739,51.397 51.9405,54.7303 49.5,57.5C 49.5,56.1667 49.5,54.8333 49.5,53.5C 50.6528,51.364 51.9862,49.364 53.5,47.5 Z"/></g>
<g><path style="opacity:1" fill="#7a6526" d="M 787.5,52.5 C 788.833,53.5 790.167,54.5 791.5,55.5C 791.5,56.1667 791.5,56.8333 791.5,57.5C 789.413,56.4154 788.08,54.7488 787.5,52.5 Z"/></g>
<g><path style="opacity:1" fill="#806a27" d="M 87.5,52.5 C 89.2132,53.6354 89.8799,55.302 89.5,57.5C 87.7868,56.3646 87.1201,54.698 87.5,52.5 Z"/></g>
<g><path style="opacity:1" fill="#91782d" d="M 49.5,53.5 C 49.5,54.8333 49.5,56.1667 49.5,57.5C 48.2482,61.6018 46.2482,65.2685 43.5,68.5C 45.6611,64.1795 47.1611,59.5129 48,54.5C 48.3826,53.944 48.8826,53.6107 49.5,53.5 Z"/></g>
<g><path style="opacity:1" fill="#d0ac41" d="M 791.5,57.5 C 793.144,57.2865 794.644,57.6198 796,58.5C 798.366,61.2433 800.2,64.2433 801.5,67.5C 800.167,66.5 798.833,65.5 797.5,64.5C 795.845,61.847 793.845,59.5136 791.5,57.5 Z"/></g>
<g><path style="opacity:1" fill="#64531f" d="M 81.5,51.5 C 81.5,52.8333 81.5,54.1667 81.5,55.5C 78.5507,59.6566 76.5507,64.3233 75.5,69.5C 74.3127,71.0725 73.3127,72.7392 72.5,74.5C 72.7556,71.4021 73.4222,68.4021 74.5,65.5C 75.1667,63.8333 75.8333,62.1667 76.5,60.5C 77.9131,57.3388 79.5797,54.3388 81.5,51.5 Z"/></g>
<g><path style="opacity:1" fill="#8b732b" d="M 119.5,55.5 C 121.074,57.1016 121.741,59.1016 121.5,61.5C 120.833,60.8333 120.167,60.1667 119.5,59.5C 119.5,58.1667 119.5,56.8333 119.5,55.5 Z"/></g>
<g><path style="opacity:1" fill="#e0ba46" d="M 87.5,48.5 C 88.7498,48.5774 89.5831,49.244 90,50.5C 93.484,59.1382 96.6507,67.8048 99.5,76.5C 98.3332,74.9586 96.9999,73.6252 95.5,72.5C 95.8799,70.302 95.2132,68.6354 93.5,67.5C 93.8799,65.302 93.2132,63.6354 91.5,62.5C 91.8799,60.302 91.2132,58.6354 89.5,57.5C 89.8799,55.302 89.2132,53.6354 87.5,52.5C 87.5,51.1667 87.5,49.8333 87.5,48.5 Z"/></g>
<g><path style="opacity:1" fill="#2a230f" d="M 870.5,51.5 C 867.891,56.383 864.557,60.7163 860.5,64.5C 861.913,61.3388 863.58,58.3388 865.5,55.5C 865.833,54.5 866.5,53.8333 867.5,53.5C 868.5,52.8333 869.5,52.1667 870.5,51.5 Z"/></g>
<g><path style="opacity:1" fill="#7d6726" d="M 89.5,57.5 C 91.2132,58.6354 91.8799,60.302 91.5,62.5C 89.7868,61.3646 89.1201,59.698 89.5,57.5 Z"/></g>
<g><path style="opacity:1" fill="#3b3113" d="M 50.5,47.5 C 49.8505,49.4352 49.5172,51.4352 49.5,53.5C 48.8826,53.6107 48.3826,53.944 48,54.5C 47.1611,59.5129 45.6611,64.1795 43.5,68.5C 43.5,68.8333 43.5,69.1667 43.5,69.5C 42.8826,69.6107 42.3826,69.944 42,70.5C 40.8695,73.4453 40.0362,76.4453 39.5,79.5C 36.6985,85.2088 33.6985,90.8755 30.5,96.5C 36.4134,79.6984 43.0801,63.365 50.5,47.5 Z"/></g>
<g><path style="opacity:1" fill="#2a230e" d="M 87.5,52.5 C 87.1201,54.698 87.7868,56.3646 89.5,57.5C 89.1201,59.698 89.7868,61.3646 91.5,62.5C 91.1201,64.698 91.7868,66.3646 93.5,67.5C 93.5,69.1667 93.5,70.8333 93.5,72.5C 90.2714,65.3543 87.1047,58.021 84,50.5C 83.2432,52.3146 82.4098,53.9812 81.5,55.5C 81.5,54.1667 81.5,52.8333 81.5,51.5C 81.5,50.8333 81.5,50.1667 81.5,49.5C 82.2646,49.0766 83.0979,48.7432 84,48.5C 85.4121,49.6856 86.5788,51.019 87.5,52.5 Z"/></g>
<g><path style="opacity:1" fill="#deb745" d="M 49.5,57.5 C 49.477,59.9267 48.977,62.26 48,64.5C 45.7465,68.0745 43.9132,71.7412 42.5,75.5C 42.5172,73.4352 42.8505,71.4352 43.5,69.5C 43.5,69.1667 43.5,68.8333 43.5,68.5C 46.2482,65.2685 48.2482,61.6018 49.5,57.5 Z"/></g>
<g><path style="opacity:1" fill="#9b8030" d="M 121.5,61.5 C 123.915,64.3399 125.248,67.6733 125.5,71.5C 123.085,68.6601 121.752,65.3267 121.5,61.5 Z"/></g>
<g><path style="opacity:0.941" fill="#221c0b" d="M 81.5,55.5 C 80.0684,60.4777 78.0684,65.1444 75.5,69.5C 76.5507,64.3233 78.5507,59.6566 81.5,55.5 Z"/></g>
<g><path style="opacity:1" fill="#6d5a22" d="M 865.5,55.5 C 863.58,58.3388 861.913,61.3388 860.5,64.5C 859.5,65.1667 858.5,65.8333 857.5,66.5C 858.471,64.5168 859.471,62.5168 860.5,60.5C 861.5,59.1667 862.5,57.8333 863.5,56.5C 864.167,56.1667 864.833,55.8333 865.5,55.5 Z"/></g>
<g><path style="opacity:1" fill="#786325" d="M 91.5,62.5 C 93.2132,63.6354 93.8799,65.302 93.5,67.5C 91.7868,66.3646 91.1201,64.698 91.5,62.5 Z"/></g>
<g><path style="opacity:1" fill="#7a6526" d="M 797.5,64.5 C 798.833,65.5 800.167,66.5 801.5,67.5C 801.5,68.1667 801.5,68.8333 801.5,69.5C 799.413,68.4154 798.08,66.7488 797.5,64.5 Z"/></g>
<g><path style="opacity:1" fill="#c4a23d" d="M 860.5,60.5 C 859.471,62.5168 858.471,64.5168 857.5,66.5C 856.167,66.5 855.5,67.1667 855.5,68.5C 854.5,69.1667 853.5,69.8333 852.5,70.5C 854.468,66.5401 857.135,63.2068 860.5,60.5 Z"/></g>
<g><path style="opacity:1" fill="#746024" d="M 93.5,67.5 C 95.2132,68.6354 95.8799,70.302 95.5,72.5C 94.8333,72.5 94.1667,72.5 93.5,72.5C 93.5,70.8333 93.5,69.1667 93.5,67.5 Z"/></g>
<g><path style="opacity:1" fill="#342b11" d="M 335.5,72.5 C 335.5,72.1667 335.5,71.8333 335.5,71.5C 336.167,71.5 336.833,71.5 337.5,71.5C 359.836,71.3334 382.169,71.5 404.5,72C 405.802,76.5822 406.469,81.4155 406.5,86.5C 406.487,91.4135 406.154,96.2468 405.5,101C 382.502,101.5 359.502,101.667 336.5,101.5C 336.831,122.673 336.497,143.673 335.5,164.5C 335.5,143.5 335.5,122.5 335.5,101.5C 335.5,101.167 335.5,100.833 335.5,100.5C 358.167,100.5 380.833,100.5 403.5,100.5C 404.828,91.4315 404.828,82.2649 403.5,73C 380.836,72.5 358.169,72.3334 335.5,72.5 Z"/></g>
<g><path style="opacity:1" fill="#806a27" d="M 855.5,68.5 C 854.92,70.7488 853.587,72.4154 851.5,73.5C 851.557,72.391 851.89,71.391 852.5,70.5C 853.5,69.8333 854.5,69.1667 855.5,68.5 Z"/></g>
<g><path style="opacity:1" fill="#957b2e" d="M 333.5,72.5 C 334.167,72.5 334.833,72.5 335.5,72.5C 358.169,72.3334 380.836,72.5 403.5,73C 404.828,82.2649 404.828,91.4315 403.5,100.5C 403.826,91.6506 403.493,82.9839 402.5,74.5C 380.006,73.5025 357.339,73.1692 334.5,73.5C 333.833,73.5 333.5,73.1667 333.5,72.5 Z"/></g>
<g><path style="opacity:1" fill="#2e2710" d="M 860.5,64.5 C 857.926,69.409 854.592,73.7423 850.5,77.5C 850.5,76.8333 850.5,76.1667 850.5,75.5C 850.833,74.8333 851.167,74.1667 851.5,73.5C 853.587,72.4154 854.92,70.7488 855.5,68.5C 855.5,67.1667 856.167,66.5 857.5,66.5C 858.5,65.8333 859.5,65.1667 860.5,64.5 Z"/></g>
<g><path style="opacity:1" fill="#d9b343" d="M 334.5,73.5 C 357.339,73.1692 380.006,73.5025 402.5,74.5C 402.5,74.8333 402.5,75.1667 402.5,75.5C 379.735,74.8432 357.069,74.1766 334.5,73.5 Z"/></g>
<g><path style="opacity:1" fill="#d7b143" d="M 801.5,69.5 C 803.144,69.2865 804.644,69.6198 806,70.5C 807.773,73.0599 809.773,75.3932 812,77.5C 812.667,79.5 812.667,81.5 812,83.5C 808.657,86.6761 805.49,90.0095 802.5,93.5C 802.833,92.1667 803.167,90.8333 803.5,89.5C 805.587,88.4154 806.92,86.7488 807.5,84.5C 811.5,81.8333 811.5,79.1667 807.5,76.5C 805.845,73.847 803.845,71.5136 801.5,69.5 Z"/></g>
<g><path style="opacity:1" fill="#a88b34" d="M 43.5,69.5 C 42.8505,71.4352 42.5172,73.4352 42.5,75.5C 41.9744,77.2303 40.9744,78.5637 39.5,79.5C 40.0362,76.4453 40.8695,73.4453 42,70.5C 42.3826,69.944 42.8826,69.6107 43.5,69.5 Z"/></g>
<g><path style="opacity:0.941" fill="#221c0b" d="M 75.5,69.5 C 75.1277,73.2971 73.7943,76.6305 71.5,79.5C 71.6287,77.7839 71.962,76.1172 72.5,74.5C 73.3127,72.7392 74.3127,71.0725 75.5,69.5 Z"/></g>
<g><path style="opacity:1" fill="#a08431" d="M 125.5,71.5 C 127.213,72.6354 127.88,74.302 127.5,76.5C 125.787,75.3646 125.12,73.698 125.5,71.5 Z"/></g>
<g><path style="opacity:1" fill="#bf9e3b" d="M 852.5,70.5 C 851.89,71.391 851.557,72.391 851.5,73.5C 851.167,74.1667 850.833,74.8333 850.5,75.5C 846.5,78.1667 846.5,80.8333 850.5,83.5C 850.5,84.1667 850.5,84.8333 850.5,85.5C 846.831,83.562 845.664,80.562 847,76.5C 849.092,74.5253 850.925,72.5253 852.5,70.5 Z"/></g>
<g><path style="opacity:1" fill="#28210e" d="M 93.5,72.5 C 94.1667,72.5 94.8333,72.5 95.5,72.5C 95.5172,74.5648 95.8505,76.5648 96.5,78.5C 94.7549,76.9674 93.7549,74.9674 93.5,72.5 Z"/></g>
<g><path style="opacity:1" fill="#746024" d="M 807.5,76.5 C 811.5,79.1667 811.5,81.8333 807.5,84.5C 808.833,81.8333 808.833,79.1667 807.5,76.5 Z"/></g>
<g><path style="opacity:1" fill="#6a5821" d="M 850.5,75.5 C 850.5,76.1667 850.5,76.8333 850.5,77.5C 847.833,78.8333 847.833,80.1667 850.5,81.5C 850.5,82.1667 850.5,82.8333 850.5,83.5C 846.5,80.8333 846.5,78.1667 850.5,75.5 Z"/></g>
<g><path style="opacity:0.471" fill="#241e0c" d="M 850.5,77.5 C 850.5,78.8333 850.5,80.1667 850.5,81.5C 847.833,80.1667 847.833,78.8333 850.5,77.5 Z"/></g>
<g><path style="opacity:1" fill="#9d8331" d="M 127.5,76.5 C 129.213,77.6354 129.88,79.302 129.5,81.5C 127.787,80.3646 127.12,78.698 127.5,76.5 Z"/></g>
<g><path style="opacity:0.063" fill="#231d0c" d="M 96.5,78.5 C 98.7851,81.335 100.118,84.6684 100.5,88.5C 99.0427,86.7582 97.876,84.7582 97,82.5C 96.51,81.2068 96.3433,79.8734 96.5,78.5 Z"/></g>
<g><path style="opacity:1" fill="#2a230e" d="M 850.5,81.5 C 852.587,82.5846 853.92,84.2512 854.5,86.5C 853.167,85.5 851.833,84.5 850.5,83.5C 850.5,82.8333 850.5,82.1667 850.5,81.5 Z"/></g>
<g><path style="opacity:1" fill="#4b3e18" d="M 72.5,74.5 C 71.962,76.1172 71.6287,77.7839 71.5,79.5C 71.5979,81.5529 70.9313,83.2196 69.5,84.5C 68.8333,85.1667 68.1667,85.8333 67.5,86.5C 67.5,86.1667 67.5,85.8333 67.5,85.5C 68.2205,81.3114 69.8872,77.6448 72.5,74.5 Z"/></g>
<g><path style="opacity:1" fill="#a38632" d="M 129.5,81.5 C 131.213,82.6354 131.88,84.302 131.5,86.5C 129.787,85.3646 129.12,83.698 129.5,81.5 Z"/></g>
<g><path style="opacity:1" fill="#776225" d="M 850.5,83.5 C 851.833,84.5 853.167,85.5 854.5,86.5C 854.5,87.1667 854.5,87.8333 854.5,88.5C 853.167,87.5 851.833,86.5 850.5,85.5C 850.5,84.8333 850.5,84.1667 850.5,83.5 Z"/></g>
<g><path style="opacity:1" fill="#cda940" d="M 850.5,85.5 C 851.833,86.5 853.167,87.5 854.5,88.5C 854.5,89.1667 854.5,89.8333 854.5,90.5C 852.413,89.4154 851.08,87.7488 850.5,85.5 Z"/></g>
<g><path style="opacity:1" fill="#7f6927" d="M 807.5,84.5 C 806.92,86.7488 805.587,88.4154 803.5,89.5C 804.08,87.2512 805.413,85.5846 807.5,84.5 Z"/></g>
<g><path style="opacity:1" fill="#2d250f" d="M 854.5,86.5 C 857.243,88.2393 859.243,90.5726 860.5,93.5C 858.5,91.8333 856.5,90.1667 854.5,88.5C 854.5,87.8333 854.5,87.1667 854.5,86.5 Z"/></g>
<g><path style="opacity:1" fill="#846d29" d="M 67.5,85.5 C 67.5,85.8333 67.5,86.1667 67.5,86.5C 67.0679,87.7095 66.4013,88.7095 65.5,89.5C 65.1568,87.5168 65.8235,86.1834 67.5,85.5 Z"/></g>
<g><path style="opacity:1" fill="#8f762c" d="M 95.5,72.5 C 96.9999,73.6252 98.3332,74.9586 99.5,76.5C 100.224,79.8426 101.057,83.176 102,86.5C 102.383,87.056 102.883,87.3893 103.5,87.5C 104.167,90.5 104.833,93.5 105.5,96.5C 104.272,95.6935 103.272,94.6935 102.5,93.5C 102.598,91.4471 101.931,89.7804 100.5,88.5C 100.118,84.6684 98.7851,81.335 96.5,78.5C 95.8505,76.5648 95.5172,74.5648 95.5,72.5 Z"/></g>
<g><path style="opacity:1" fill="#866f29" d="M 131.5,86.5 C 132.906,86.9731 133.573,87.9731 133.5,89.5C 132.094,89.0269 131.427,88.0269 131.5,86.5 Z"/></g>
<g><path style="opacity:1" fill="#dbb544" d="M 74.5,65.5 C 73.4222,68.4021 72.7556,71.4021 72.5,74.5C 69.8872,77.6448 68.2205,81.3114 67.5,85.5C 65.8235,86.1834 65.1568,87.5168 65.5,89.5C 63.1034,92.309 61.7701,95.6424 61.5,99.5C 60.8333,99.8333 60.1667,100.167 59.5,100.5C 62.6966,89.593 66.5299,78.9263 71,68.5C 72.0391,67.2899 73.2058,66.2899 74.5,65.5 Z"/></g>
<g><path style="opacity:0.063" fill="#211b0b" d="M 100.5,88.5 C 101.931,89.7804 102.598,91.4471 102.5,93.5C 100.787,92.3646 100.12,90.698 100.5,88.5 Z"/></g>
<g><path style="opacity:1" fill="#ceaa40" d="M 854.5,90.5 C 856.5,92.1667 858.5,93.8333 860.5,95.5C 860.5,96.1667 860.5,96.8333 860.5,97.5C 857.757,95.7607 855.757,93.4274 854.5,90.5 Z"/></g>
<g><path style="opacity:1" fill="#776225" d="M 854.5,88.5 C 856.5,90.1667 858.5,91.8333 860.5,93.5C 860.5,94.1667 860.5,94.8333 860.5,95.5C 858.5,93.8333 856.5,92.1667 854.5,90.5C 854.5,89.8333 854.5,89.1667 854.5,88.5 Z"/></g>
<g><path style="opacity:1" fill="#9d8231" d="M 39.5,79.5 C 38.7814,81.7638 38.448,84.0971 38.5,86.5C 35.8393,91.1529 33.1726,95.8196 30.5,100.5C 30.5,99.1667 30.5,97.8333 30.5,96.5C 33.6985,90.8755 36.6985,85.2088 39.5,79.5 Z"/></g>
<g><path style="opacity:1" fill="#5f4f1d" d="M 133.5,89.5 C 134.272,90.6935 135.272,91.6935 136.5,92.5C 136.5,93.8333 136.5,95.1667 136.5,96.5C 135.833,95.5 135.167,94.5 134.5,93.5C 133.566,92.4324 133.232,91.099 133.5,89.5 Z"/></g>
<g><path style="opacity:1" fill="#816b28" d="M 65.5,89.5 C 65.6567,90.8734 65.49,92.2068 65,93.5C 63.9179,95.6181 62.7512,97.6181 61.5,99.5C 61.7701,95.6424 63.1034,92.309 65.5,89.5 Z"/></g>
<g><path style="opacity:1" fill="#2d250f" d="M 102.5,93.5 C 103.272,94.6935 104.272,95.6935 105.5,96.5C 105.674,98.861 106.007,101.194 106.5,103.5C 104.597,100.47 103.263,97.1368 102.5,93.5 Z"/></g>
<g><path style="opacity:1" fill="#332a11" d="M 136.5,92.5 C 146.296,114.437 155.296,136.771 163.5,159.5C 161.76,156.362 159.76,153.362 157.5,150.5C 157.5,149.833 157.5,149.167 157.5,148.5C 157.104,145.279 155.771,142.612 153.5,140.5C 153.5,139.833 153.5,139.167 153.5,138.5C 153.573,136.973 152.906,135.973 151.5,135.5C 151.88,133.302 151.213,131.635 149.5,130.5C 149.88,128.302 149.213,126.635 147.5,125.5C 147.248,121.673 145.915,118.34 143.5,115.5C 143.741,113.102 143.074,111.102 141.5,109.5C 140.421,104.927 138.754,100.593 136.5,96.5C 136.5,95.1667 136.5,93.8333 136.5,92.5 Z"/></g>
<g><path style="opacity:1" fill="#2a230e" d="M 860.5,93.5 C 862.587,94.5846 863.92,96.2512 864.5,98.5C 863.167,97.5 861.833,96.5 860.5,95.5C 860.5,94.8333 860.5,94.1667 860.5,93.5 Z"/></g>
<g><path style="opacity:1" fill="#27200d" d="M 69.5,84.5 C 66.8579,93.2577 63.5245,101.758 59.5,110C 60.056,110.383 60.3893,110.883 60.5,111.5C 58.9519,111.179 58.2852,110.179 58.5,108.5C 60.4725,105.916 61.4725,102.916 61.5,99.5C 62.7512,97.6181 63.9179,95.6181 65,93.5C 65.49,92.2068 65.6567,90.8734 65.5,89.5C 66.4013,88.7095 67.0679,87.7095 67.5,86.5C 68.1667,85.8333 68.8333,85.1667 69.5,84.5 Z"/></g>
<g><path style="opacity:1" fill="#776225" d="M 860.5,95.5 C 861.833,96.5 863.167,97.5 864.5,98.5C 864.5,99.1667 864.5,99.8333 864.5,100.5C 863.167,99.5 861.833,98.5 860.5,97.5C 860.5,96.8333 860.5,96.1667 860.5,95.5 Z"/></g>
<g><path style="opacity:1" fill="#e7bf48" d="M 103.5,87.5 C 104.75,87.5774 105.583,88.244 106,89.5C 109.139,97.0865 111.972,104.753 114.5,112.5C 113.5,112.5 112.5,112.5 111.5,112.5C 111.192,108.405 110.359,104.405 109,100.5C 108.617,99.944 108.117,99.6107 107.5,99.5C 107.573,97.9731 106.906,96.9731 105.5,96.5C 104.833,93.5 104.167,90.5 103.5,87.5 Z"/></g>
<g><path style="opacity:1" fill="#ecc34a" d="M 333.5,34.5 C 333.5,47.1667 333.5,59.8333 333.5,72.5C 333.5,73.1667 333.833,73.5 334.5,73.5C 357.069,74.1766 379.735,74.8432 402.5,75.5C 402.5,83.5 402.5,91.5 402.5,99.5C 379.833,99.5 357.167,99.5 334.5,99.5C 356.327,98.5026 378.327,98.1693 400.5,98.5C 400.5,90.8333 400.5,83.1667 400.5,75.5C 378.164,75.6666 355.831,75.5 333.5,75C 332.17,61.4021 332.17,47.9021 333.5,34.5 Z"/></g>
<g><path style="opacity:1" fill="#cda940" d="M 860.5,97.5 C 861.833,98.5 863.167,99.5 864.5,100.5C 864.5,101.167 864.5,101.833 864.5,102.5C 862.413,101.415 861.08,99.7488 860.5,97.5 Z"/></g>
<g><path style="opacity:1" fill="#b89739" d="M 402.5,74.5 C 403.493,82.9839 403.826,91.6506 403.5,100.5C 380.833,100.5 358.167,100.5 335.5,100.5C 334.833,100.5 334.167,100.5 333.5,100.5C 333.5,99.8333 333.833,99.5 334.5,99.5C 357.167,99.5 379.833,99.5 402.5,99.5C 402.5,91.5 402.5,83.5 402.5,75.5C 402.5,75.1667 402.5,74.8333 402.5,74.5 Z"/></g>
<g><path style="opacity:1" fill="#8b732b" d="M 803.5,89.5 C 803.167,90.8333 802.833,92.1667 802.5,93.5C 795.738,102.019 788.738,110.352 781.5,118.5C 788.108,108.286 795.441,98.6194 803.5,89.5 Z"/></g>
<g><path style="opacity:1" fill="#2d250f" d="M 864.5,98.5 C 867.243,100.239 869.243,102.573 870.5,105.5C 868.5,103.833 866.5,102.167 864.5,100.5C 864.5,99.8333 864.5,99.1667 864.5,98.5 Z"/></g>
<g><path style="opacity:1" fill="#312911" d="M 30.5,96.5 C 30.5,97.8333 30.5,99.1667 30.5,100.5C 29.8333,100.833 29.1667,101.167 28.5,101.5C 28.1201,99.302 28.7868,97.6354 30.5,96.5 Z"/></g>
<g><path style="opacity:1" fill="#796425" d="M 105.5,96.5 C 106.906,96.9731 107.573,97.9731 107.5,99.5C 108.15,101.435 108.483,103.435 108.5,105.5C 107.833,104.833 107.167,104.167 106.5,103.5C 106.007,101.194 105.674,98.861 105.5,96.5 Z"/></g>
<g><path style="opacity:1" fill="#e1ba46" d="M 134.5,97.5 C 136.833,101.5 139.167,105.5 141.5,109.5C 141.5,110.833 141.5,112.167 141.5,113.5C 140.542,113.047 139.708,112.381 139,111.5C 137.376,106.796 135.876,102.129 134.5,97.5 Z"/></g>
<g><path style="opacity:1" fill="#caa73f" d="M 308.5,7.5 C 308.5,59.5 308.5,111.5 308.5,163.5C 316.5,163.5 324.5,163.5 332.5,163.5C 332.5,142.5 332.5,121.5 332.5,100.5C 332.833,100.5 333.167,100.5 333.5,100.5C 333.5,121.833 333.5,143.167 333.5,164.5C 324.833,164.5 316.167,164.5 307.5,164.5C 307.5,164.167 307.5,163.833 307.5,163.5C 307.168,111.331 307.501,59.3307 308.5,7.5 Z"/></g>
<g><path style="opacity:1" fill="#806927" d="M 333.5,100.5 C 334.167,100.5 334.833,100.5 335.5,100.5C 335.5,100.833 335.5,101.167 335.5,101.5C 334.833,122.5 334.167,143.5 333.5,164.5C 333.5,143.167 333.5,121.833 333.5,100.5 Z"/></g>
<g><path style="opacity:1" fill="#453915" d="M 335.5,101.5 C 335.5,122.5 335.5,143.5 335.5,164.5C 325.5,165.833 315.5,165.833 305.5,164.5C 306.167,164.5 306.833,164.5 307.5,164.5C 316.167,164.5 324.833,164.5 333.5,164.5C 334.167,143.5 334.833,122.5 335.5,101.5 Z"/></g>
<g><path style="opacity:1" fill="#90772d" d="M 134.5,93.5 C 135.167,94.5 135.833,95.5 136.5,96.5C 138.754,100.593 140.421,104.927 141.5,109.5C 139.167,105.5 136.833,101.5 134.5,97.5C 134.5,96.1667 134.5,94.8333 134.5,93.5 Z"/></g>
<g><path style="opacity:1" fill="#6f5c23" d="M 61.5,99.5 C 61.4725,102.916 60.4725,105.916 58.5,108.5C 58.8333,105.833 59.1667,103.167 59.5,100.5C 60.1667,100.167 60.8333,99.8333 61.5,99.5 Z"/></g>
<g><path style="opacity:1" fill="#ceaa40" d="M 864.5,102.5 C 866.5,104.167 868.5,105.833 870.5,107.5C 870.5,108.167 870.5,108.833 870.5,109.5C 867.757,107.761 865.757,105.427 864.5,102.5 Z"/></g>
<g><path style="opacity:1" fill="#776225" d="M 864.5,100.5 C 866.5,102.167 868.5,103.833 870.5,105.5C 870.5,106.167 870.5,106.833 870.5,107.5C 868.5,105.833 866.5,104.167 864.5,102.5C 864.5,101.833 864.5,101.167 864.5,100.5 Z"/></g>
<g><path style="opacity:1" fill="#7c6726" d="M 30.5,100.5 C 30.0652,103.157 29.0652,105.491 27.5,107.5C 27.5172,105.435 27.8505,103.435 28.5,101.5C 29.1667,101.167 29.8333,100.833 30.5,100.5 Z"/></g>
<g><path style="opacity:1" fill="#bb9a3a" d="M 838.5,112.5 C 836.299,109.979 833.966,107.479 831.5,105C 830.167,104.333 828.833,104.333 827.5,105C 824.364,109.638 821.03,114.138 817.5,118.5C 816.222,118.782 815.222,119.449 814.5,120.5C 818.191,114.049 822.525,107.882 827.5,102C 828.833,101.333 830.167,101.333 831.5,102C 834.722,104.956 837.056,108.456 838.5,112.5 Z"/></g>
<g><path style="opacity:1" fill="#2e2610" d="M 28.5,101.5 C 27.8505,103.435 27.5172,105.435 27.5,107.5C 26.1429,108.59 25.1429,109.924 24.5,111.5C 24.3433,110.127 24.51,108.793 25,107.5C 25.876,105.242 27.0427,103.242 28.5,101.5 Z"/></g>
<g><path style="opacity:1" fill="#2a230e" d="M 870.5,105.5 C 872.587,106.585 873.92,108.251 874.5,110.5C 873.167,109.5 871.833,108.5 870.5,107.5C 870.5,106.833 870.5,106.167 870.5,105.5 Z"/></g>
<g><path style="opacity:1" fill="#776225" d="M 870.5,107.5 C 871.833,108.5 873.167,109.5 874.5,110.5C 874.5,111.167 874.5,111.833 874.5,112.5C 873.167,111.5 871.833,110.5 870.5,109.5C 870.5,108.833 870.5,108.167 870.5,107.5 Z"/></g>
<g><path style="opacity:1" fill="#9b8030" d="M 107.5,99.5 C 108.117,99.6107 108.617,99.944 109,100.5C 110.359,104.405 111.192,108.405 111.5,112.5C 111.167,112.5 110.833,112.5 110.5,112.5C 110.6,109.892 109.933,107.558 108.5,105.5C 108.483,103.435 108.15,101.435 107.5,99.5 Z"/></g>
<g><path style="opacity:1" fill="#cda940" d="M 870.5,109.5 C 871.833,110.5 873.167,111.5 874.5,112.5C 874.5,113.167 874.5,113.833 874.5,114.5C 872.413,113.415 871.08,111.749 870.5,109.5 Z"/></g>
<g><path style="opacity:1" fill="#806a27" d="M 27.5,107.5 C 27.6567,108.873 27.49,110.207 27,111.5C 25.9179,113.618 24.7512,115.618 23.5,117.5C 23.5172,115.435 23.8505,113.435 24.5,111.5C 25.1429,109.924 26.1429,108.59 27.5,107.5 Z"/></g>
<g><path style="opacity:1" fill="#483c16" d="M 106.5,103.5 C 107.167,104.167 107.833,104.833 108.5,105.5C 109.933,107.558 110.6,109.892 110.5,112.5C 92.8333,112.5 75.1667,112.5 57.5,112.5C 57.2322,110.901 57.5655,109.568 58.5,108.5C 58.2852,110.179 58.9519,111.179 60.5,111.5C 76.5,111.5 92.5,111.5 108.5,111.5C 107.833,108.833 107.167,106.167 106.5,103.5 Z"/></g>
<g><path style="opacity:1" fill="#2d250f" d="M 874.5,110.5 C 877.243,112.239 879.243,114.573 880.5,117.5C 878.5,115.833 876.5,114.167 874.5,112.5C 874.5,111.833 874.5,111.167 874.5,110.5 Z"/></g>
<g><path style="opacity:1" fill="#e1ba46" d="M 38.5,86.5 C 35.8598,95.8779 32.5264,105.045 28.5,114C 25.9031,119.409 23.2364,124.576 20.5,129.5C 20.5172,127.435 20.8505,125.435 21.5,123.5C 21.5,123.167 21.5,122.833 21.5,122.5C 23.2132,121.365 23.8799,119.698 23.5,117.5C 24.7512,115.618 25.9179,113.618 27,111.5C 27.49,110.207 27.6567,108.873 27.5,107.5C 29.0652,105.491 30.0652,103.157 30.5,100.5C 33.1726,95.8196 35.8393,91.1529 38.5,86.5 Z"/></g>
<g><path style="opacity:1" fill="#c3a13d" d="M 59.5,100.5 C 59.1667,103.167 58.8333,105.833 58.5,108.5C 57.5655,109.568 57.2322,110.901 57.5,112.5C 75.1667,112.5 92.8333,112.5 110.5,112.5C 110.833,112.5 111.167,112.5 111.5,112.5C 93.0075,113.497 74.3408,113.83 55.5,113.5C 55.8076,109.405 56.6409,105.405 58,101.5C 58.3826,100.944 58.8826,100.611 59.5,100.5 Z"/></g>
<g><path style="opacity:1" fill="#88712b" d="M 141.5,109.5 C 143.074,111.102 143.741,113.102 143.5,115.5C 142.833,114.833 142.167,114.167 141.5,113.5C 141.5,112.167 141.5,110.833 141.5,109.5 Z"/></g>
<g><path style="opacity:1" fill="#ceaa40" d="M 874.5,114.5 C 876.5,116.167 878.5,117.833 880.5,119.5C 880.5,120.167 880.5,120.833 880.5,121.5C 877.757,119.761 875.757,117.427 874.5,114.5 Z"/></g>
<g><path style="opacity:1" fill="#776225" d="M 874.5,112.5 C 876.5,114.167 878.5,115.833 880.5,117.5C 880.5,118.167 880.5,118.833 880.5,119.5C 878.5,117.833 876.5,116.167 874.5,114.5C 874.5,113.833 874.5,113.167 874.5,112.5 Z"/></g>
<g><path style="opacity:1" fill="#7a6526" d="M 839.5,114.5 C 840.5,115.167 841.5,115.833 842.5,116.5C 843.11,117.391 843.443,118.391 843.5,119.5C 841.413,118.415 840.08,116.749 839.5,114.5 Z"/></g>
<g><path style="opacity:1" fill="#9b8030" d="M 143.5,115.5 C 145.915,118.34 147.248,121.673 147.5,125.5C 145.085,122.66 143.752,119.327 143.5,115.5 Z"/></g>
<g><path style="opacity:1" fill="#d3ae41" d="M 842.5,116.5 C 844.09,116.628 845.423,117.295 846.5,118.5C 849.612,121.737 851.946,125.404 853.5,129.5C 852.167,128.5 850.833,127.5 849.5,126.5C 847.845,123.847 845.845,121.514 843.5,119.5C 843.443,118.391 843.11,117.391 842.5,116.5 Z"/></g>
<g><path style="opacity:1" fill="#2a230e" d="M 880.5,117.5 C 882.587,118.585 883.92,120.251 884.5,122.5C 883.167,121.5 881.833,120.5 880.5,119.5C 880.5,118.833 880.5,118.167 880.5,117.5 Z"/></g>
<g><path style="opacity:1" fill="#8c742b" d="M 23.5,117.5 C 23.8799,119.698 23.2132,121.365 21.5,122.5C 21.1201,120.302 21.7868,118.635 23.5,117.5 Z"/></g>
<g><path style="opacity:1" fill="#816a28" d="M 781.5,118.5 C 780.92,120.749 779.587,122.415 777.5,123.5C 778.08,121.251 779.413,119.585 781.5,118.5 Z"/></g>
<g><path style="opacity:1" fill="#6e5b22" d="M 817.5,118.5 C 816.471,120.517 815.471,122.517 814.5,124.5C 813.5,125.167 812.5,125.833 811.5,126.5C 812.471,124.517 813.471,122.517 814.5,120.5C 815.222,119.449 816.222,118.782 817.5,118.5 Z"/></g>
<g><path style="opacity:1" fill="#776225" d="M 880.5,119.5 C 881.833,120.5 883.167,121.5 884.5,122.5C 884.5,123.167 884.5,123.833 884.5,124.5C 883.167,123.5 881.833,122.5 880.5,121.5C 880.5,120.833 880.5,120.167 880.5,119.5 Z"/></g>
<g><path style="opacity:1" fill="#cda940" d="M 880.5,121.5 C 881.833,122.5 883.167,123.5 884.5,124.5C 884.5,125.167 884.5,125.833 884.5,126.5C 882.413,125.415 881.08,123.749 880.5,121.5 Z"/></g>
<g><path style="opacity:1" fill="#2d250f" d="M 884.5,122.5 C 887.243,124.239 889.243,126.573 890.5,129.5C 888.5,127.833 886.5,126.167 884.5,124.5C 884.5,123.833 884.5,123.167 884.5,122.5 Z"/></g>
<g><path style="opacity:1" fill="#866f29" d="M 777.5,123.5 C 777.573,125.027 776.906,126.027 775.5,126.5C 775.427,124.973 776.094,123.973 777.5,123.5 Z"/></g>
<g><path style="opacity:1" fill="#876f2a" d="M 147.5,125.5 C 149.213,126.635 149.88,128.302 149.5,130.5C 148.463,129.07 147.796,127.403 147.5,125.5 Z"/></g>
<g><path style="opacity:1" fill="#ceaa40" d="M 884.5,126.5 C 886.5,128.167 888.5,129.833 890.5,131.5C 890.5,132.167 890.5,132.833 890.5,133.5C 887.757,131.761 885.757,129.427 884.5,126.5 Z"/></g>
<g><path style="opacity:1" fill="#776225" d="M 884.5,124.5 C 886.5,126.167 888.5,127.833 890.5,129.5C 890.5,130.167 890.5,130.833 890.5,131.5C 888.5,129.833 886.5,128.167 884.5,126.5C 884.5,125.833 884.5,125.167 884.5,124.5 Z"/></g>
<g><path style="opacity:1" fill="#a78a34" d="M 21.5,123.5 C 20.8505,125.435 20.5172,127.435 20.5,129.5C 19.9744,131.23 18.9744,132.564 17.5,133.5C 17.3433,132.127 17.51,130.793 18,129.5C 18.876,127.242 20.0427,125.242 21.5,123.5 Z"/></g>
<g><path style="opacity:1" fill="#88712a" d="M 775.5,126.5 C 773.416,130.336 771.083,134.003 768.5,137.5C 766.605,138.973 764.939,140.64 763.5,142.5C 766.353,136.313 770.353,130.979 775.5,126.5 Z"/></g>
<g><path style="opacity:1" fill="#352c12" d="M 814.5,124.5 C 812.984,127.533 810.984,130.2 808.5,132.5C 808.833,131.167 809.167,129.833 809.5,128.5C 809.5,127.167 810.167,126.5 811.5,126.5C 812.5,125.833 813.5,125.167 814.5,124.5 Z"/></g>
<g><path style="opacity:1" fill="#7a6526" d="M 849.5,126.5 C 850.833,127.5 852.167,128.5 853.5,129.5C 853.5,130.167 853.5,130.833 853.5,131.5C 851.413,130.415 850.08,128.749 849.5,126.5 Z"/></g>
<g><path style="opacity:1" fill="#d0ac41" d="M 853.5,131.5 C 855.144,131.286 856.644,131.62 858,132.5C 860.366,135.243 862.2,138.243 863.5,141.5C 862.167,140.5 860.833,139.5 859.5,138.5C 857.845,135.847 855.845,133.514 853.5,131.5 Z"/></g>
<g><path style="opacity:1" fill="#2a230e" d="M 890.5,129.5 C 892.587,130.585 893.92,132.251 894.5,134.5C 893.167,133.5 891.833,132.5 890.5,131.5C 890.5,130.833 890.5,130.167 890.5,129.5 Z"/></g>
<g><path style="opacity:1" fill="#63511e" d="M 809.5,128.5 C 809.167,129.833 808.833,131.167 808.5,132.5C 807.5,133.167 806.5,133.833 805.5,134.5C 806.34,132.147 807.674,130.147 809.5,128.5 Z"/></g>
<g><path style="opacity:1" fill="#776225" d="M 890.5,131.5 C 891.833,132.5 893.167,133.5 894.5,134.5C 894.5,135.167 894.5,135.833 894.5,136.5C 893.167,135.5 891.833,134.5 890.5,133.5C 890.5,132.833 890.5,132.167 890.5,131.5 Z"/></g>
<g><path style="opacity:1" fill="#9d8331" d="M 149.5,130.5 C 151.213,131.635 151.88,133.302 151.5,135.5C 149.787,134.365 149.12,132.698 149.5,130.5 Z"/></g>
<g><path style="opacity:1" fill="#cda940" d="M 890.5,133.5 C 891.833,134.5 893.167,135.5 894.5,136.5C 894.5,137.167 894.5,137.833 894.5,138.5C 892.413,137.415 891.08,135.749 890.5,133.5 Z"/></g>
<g><path style="opacity:1" fill="#be9c3b" d="M 814.5,120.5 C 813.471,122.517 812.471,124.517 811.5,126.5C 810.167,126.5 809.5,127.167 809.5,128.5C 807.674,130.147 806.34,132.147 805.5,134.5C 802.8,136.234 800.8,138.568 799.5,141.5C 798.272,142.306 797.272,143.306 796.5,144.5C 796.351,143.448 796.517,142.448 797,141.5C 802.751,134.266 808.584,127.266 814.5,120.5 Z"/></g>
<g><path style="opacity:1" fill="#2d250f" d="M 894.5,134.5 C 897.243,136.239 899.243,138.573 900.5,141.5C 898.5,139.833 896.5,138.167 894.5,136.5C 894.5,135.833 894.5,135.167 894.5,134.5 Z"/></g>
<g><path style="opacity:1" fill="#967c2f" d="M 511.5,136.5 C 512.167,136.5 512.833,136.5 513.5,136.5C 543.502,136.333 573.502,136.5 603.5,137C 604.828,146.265 604.828,155.432 603.5,164.5C 603.826,155.651 603.493,146.984 602.5,138.5C 572.167,137.833 541.833,137.167 511.5,136.5 Z"/></g>
<g><path style="opacity:1" fill="#e2bb47" d="M 122.5,139.5 C 96.4979,139.333 70.4979,139.5 44.5,140C 43.9558,140.717 43.2891,141.217 42.5,141.5C 42.5394,140.417 42.8728,139.417 43.5,138.5C 56.6667,138.167 69.8333,137.833 83,137.5C 96.5174,137.501 109.684,138.167 122.5,139.5 Z"/></g>
<g><path style="opacity:1" fill="#816a28" d="M 151.5,135.5 C 152.906,135.973 153.573,136.973 153.5,138.5C 152.094,138.027 151.427,137.027 151.5,135.5 Z"/></g>
<g><path style="opacity:1" fill="#d9b344" d="M 510.5,136.5 C 510.833,136.5 511.167,136.5 511.5,136.5C 541.833,137.167 572.167,137.833 602.5,138.5C 602.5,138.833 602.5,139.167 602.5,139.5C 571.907,138.508 541.24,138.175 510.5,138.5C 510.5,137.833 510.5,137.167 510.5,136.5 Z"/></g>
<g><path style="opacity:1" fill="#aa8c35" d="M 17.5,133.5 C 16.8391,139.138 14.8391,144.138 11.5,148.5C 12.3598,142.895 14.3598,137.895 17.5,133.5 Z"/></g>
<g><path style="opacity:1" fill="#8e752c" d="M 122.5,139.5 C 122.5,139.833 122.5,140.167 122.5,140.5C 96.8312,140.333 71.1645,140.5 45.5,141C 44.1629,145.526 42.1629,149.692 39.5,153.5C 40.4881,149.515 41.4881,145.515 42.5,141.5C 43.2891,141.217 43.9558,140.717 44.5,140C 70.4979,139.5 96.4979,139.333 122.5,139.5 Z"/></g>
<g><path style="opacity:1" fill="#c19f3c" d="M 122.5,140.5 C 122.5,140.167 122.5,139.833 122.5,139.5C 124.017,139.511 125.184,140.177 126,141.5C 126.977,143.74 127.477,146.073 127.5,148.5C 126.833,147.833 126.167,147.167 125.5,146.5C 125.245,144.033 124.245,142.033 122.5,140.5 Z"/></g>
<g><path style="opacity:1" fill="#2f260f" d="M 122.5,140.5 C 122.5,141.167 122.5,141.833 122.5,142.5C 97.2324,141.177 71.899,141.177 46.5,142.5C 44.3323,148.826 41.6656,154.826 38.5,160.5C 38.9926,158.194 39.3259,155.861 39.5,153.5C 42.1629,149.692 44.1629,145.526 45.5,141C 71.1645,140.5 96.8312,140.333 122.5,140.5 Z"/></g>
<g><path style="opacity:1" fill="#392f13" d="M 808.5,132.5 C 805.891,137.383 802.557,141.716 798.5,145.5C 798.833,144.167 799.167,142.833 799.5,141.5C 800.8,138.568 802.8,136.234 805.5,134.5C 806.5,133.833 807.5,133.167 808.5,132.5 Z"/></g>
<g><path style="opacity:1" fill="#352c12" d="M 838.5,112.5 C 838.833,113.167 839.167,113.833 839.5,114.5C 840.08,116.749 841.413,118.415 843.5,119.5C 845.845,121.514 847.845,123.847 849.5,126.5C 850.08,128.749 851.413,130.415 853.5,131.5C 855.845,133.514 857.845,135.847 859.5,138.5C 860.08,140.749 861.413,142.415 863.5,143.5C 865.845,145.514 867.845,147.847 869.5,150.5C 870.08,152.749 871.413,154.415 873.5,155.5C 875.845,157.514 877.845,159.847 879.5,162.5C 879.611,163.117 879.944,163.617 880.5,164C 892.829,164.5 905.162,164.667 917.5,164.5C 905.007,165.66 892.34,165.827 879.5,165C 862.942,145.367 846.275,125.867 829.5,106.5C 824.477,112.519 819.477,118.519 814.5,124.5C 815.471,122.517 816.471,120.517 817.5,118.5C 821.03,114.138 824.364,109.638 827.5,105C 828.833,104.333 830.167,104.333 831.5,105C 833.966,107.479 836.299,109.979 838.5,112.5 Z"/></g>
<g><path style="opacity:1" fill="#776225" d="M 894.5,136.5 C 896.5,138.167 898.5,139.833 900.5,141.5C 900.5,142.167 900.5,142.833 900.5,143.5C 898.5,141.833 896.5,140.167 894.5,138.5C 894.5,137.833 894.5,137.167 894.5,136.5 Z"/></g>
<g><path style="opacity:1" fill="#7a6526" d="M 859.5,138.5 C 860.833,139.5 862.167,140.5 863.5,141.5C 863.5,142.167 863.5,142.833 863.5,143.5C 861.413,142.415 860.08,140.749 859.5,138.5 Z"/></g>
<g><path style="opacity:1" fill="#d0ac41" d="M 863.5,143.5 C 865.144,143.286 866.644,143.62 868,144.5C 870.366,147.243 872.2,150.243 873.5,153.5C 872.167,152.5 870.833,151.5 869.5,150.5C 867.845,147.847 865.845,145.514 863.5,143.5 Z"/></g>
<g><path style="opacity:1" fill="#9a7f2f" d="M 153.5,140.5 C 155.771,142.612 157.104,145.279 157.5,148.5C 154.863,146.518 153.53,143.852 153.5,140.5 Z"/></g>
<g><path style="opacity:1" fill="#2a230e" d="M 900.5,141.5 C 902.587,142.585 903.92,144.251 904.5,146.5C 903.167,145.5 901.833,144.5 900.5,143.5C 900.5,142.833 900.5,142.167 900.5,141.5 Z"/></g>
<g><path style="opacity:0.063" fill="#201b0b" d="M 122.5,142.5 C 123.143,144.076 124.143,145.41 125.5,146.5C 125.5,147.833 125.5,149.167 125.5,150.5C 123.62,148.245 122.62,145.578 122.5,142.5 Z"/></g>
<g><path style="opacity:1" fill="#665520" d="M 122.5,140.5 C 124.245,142.033 125.245,144.033 125.5,146.5C 124.143,145.41 123.143,144.076 122.5,142.5C 122.5,141.833 122.5,141.167 122.5,140.5 Z"/></g>
<g><path style="opacity:1" fill="#312911" d="M 755.5,16.5 C 756.167,16.5 756.833,16.5 757.5,16.5C 758.08,18.7488 759.413,20.4154 761.5,21.5C 763.845,23.5136 765.845,25.847 767.5,28.5C 768.08,30.7488 769.413,32.4154 771.5,33.5C 773.845,35.5136 775.845,37.847 777.5,40.5C 778.08,42.7488 779.413,44.4154 781.5,45.5C 783.845,47.5136 785.845,49.847 787.5,52.5C 788.08,54.7488 789.413,56.4154 791.5,57.5C 793.845,59.5136 795.845,61.847 797.5,64.5C 798.08,66.7488 799.413,68.4154 801.5,69.5C 803.845,71.5136 805.845,73.847 807.5,76.5C 808.833,79.1667 808.833,81.8333 807.5,84.5C 805.413,85.5846 804.08,87.2512 803.5,89.5C 795.441,98.6194 788.108,108.286 781.5,118.5C 779.413,119.585 778.08,121.251 777.5,123.5C 776.094,123.973 775.427,124.973 775.5,126.5C 770.353,130.979 766.353,136.313 763.5,142.5C 762.167,142.5 761.5,143.167 761.5,144.5C 757.443,148.284 754.109,152.617 751.5,157.5C 750.094,157.973 749.427,158.973 749.5,160.5C 748.188,161.145 747.188,162.145 746.5,163.5C 758.486,164.666 770.486,164.833 782.5,164C 784.07,162.603 785.404,161.103 786.5,159.5C 787.167,159.167 787.833,158.833 788.5,158.5C 787.676,161.315 786.009,163.482 783.5,165C 770.833,165.667 758.167,165.667 745.5,165C 745.043,164.586 744.709,164.086 744.5,163.5C 765.743,136.013 786.743,108.346 807.5,80.5C 790.522,58.8577 773.189,37.5243 755.5,16.5 Z"/></g>
<g><path style="opacity:1" fill="#776225" d="M 900.5,143.5 C 901.833,144.5 903.167,145.5 904.5,146.5C 904.5,147.167 904.5,147.833 904.5,148.5C 903.167,147.5 901.833,146.5 900.5,145.5C 900.5,144.833 900.5,144.167 900.5,143.5 Z"/></g>
<g><path style="opacity:1" fill="#66551f" d="M 799.5,141.5 C 799.167,142.833 798.833,144.167 798.5,145.5C 797.5,146.167 796.5,146.833 795.5,147.5C 795.557,146.391 795.89,145.391 796.5,144.5C 797.272,143.306 798.272,142.306 799.5,141.5 Z"/></g>
<g><path style="opacity:1" fill="#cda940" d="M 900.5,145.5 C 901.833,146.5 903.167,147.5 904.5,148.5C 904.5,149.167 904.5,149.833 904.5,150.5C 902.413,149.415 901.08,147.749 900.5,145.5 Z"/></g>
<g><path style="opacity:1" fill="#836c28" d="M 761.5,144.5 C 760.5,146.5 759.5,148.5 758.5,150.5C 756.527,153.139 754.194,155.473 751.5,157.5C 754.109,152.617 757.443,148.284 761.5,144.5 Z"/></g>
<g><path style="opacity:1" fill="#2d250f" d="M 904.5,146.5 C 907.243,148.239 909.243,150.573 910.5,153.5C 908.5,151.833 906.5,150.167 904.5,148.5C 904.5,147.833 904.5,147.167 904.5,146.5 Z"/></g>
<g><path style="opacity:1" fill="#cca83f" d="M 768.5,137.5 C 765.926,142.409 762.592,146.742 758.5,150.5C 759.5,148.5 760.5,146.5 761.5,144.5C 761.5,143.167 762.167,142.5 763.5,142.5C 764.939,140.64 766.605,138.973 768.5,137.5 Z"/></g>
<g><path style="opacity:1" fill="#312911" d="M 798.5,145.5 C 796.878,148.455 794.878,151.122 792.5,153.5C 792.833,152.167 793.167,150.833 793.5,149.5C 793.833,148.5 794.5,147.833 795.5,147.5C 796.5,146.833 797.5,146.167 798.5,145.5 Z"/></g>
<g><path style="opacity:1" fill="#3d3314" d="M 24.5,111.5 C 23.8505,113.435 23.5172,115.435 23.5,117.5C 21.7868,118.635 21.1201,120.302 21.5,122.5C 21.5,122.833 21.5,123.167 21.5,123.5C 20.0427,125.242 18.876,127.242 18,129.5C 17.51,130.793 17.3433,132.127 17.5,133.5C 14.3598,137.895 12.3598,142.895 11.5,148.5C 9.8053,150.535 8.47197,152.868 7.5,155.5C 7.16667,155.5 6.83333,155.5 6.5,155.5C 11.535,140.385 17.535,125.718 24.5,111.5 Z"/></g>
<g><path style="opacity:1" fill="#776225" d="M 904.5,148.5 C 906.5,150.167 908.5,151.833 910.5,153.5C 910.5,154.167 910.5,154.833 910.5,155.5C 908.5,153.833 906.5,152.167 904.5,150.5C 904.5,149.833 904.5,149.167 904.5,148.5 Z"/></g>
<g><path style="opacity:1" fill="#62511e" d="M 793.5,149.5 C 793.167,150.833 792.833,152.167 792.5,153.5C 790.413,154.585 789.08,156.251 788.5,158.5C 787.833,158.833 787.167,159.167 786.5,159.5C 788.062,155.608 790.395,152.275 793.5,149.5 Z"/></g>
<g><path style="opacity:1" fill="#7a6526" d="M 869.5,150.5 C 870.833,151.5 872.167,152.5 873.5,153.5C 873.5,154.167 873.5,154.833 873.5,155.5C 871.413,154.415 870.08,152.749 869.5,150.5 Z"/></g>
<g><path style="opacity:1" fill="#816b28" d="M 127.5,150.5 C 129.213,151.635 129.88,153.302 129.5,155.5C 127.787,154.365 127.12,152.698 127.5,150.5 Z"/></g>
<g><path style="opacity:1" fill="#ac8e35" d="M 11.5,148.5 C 10.9973,152.04 9.9973,155.373 8.5,158.5C 8.16667,158.5 7.83333,158.5 7.5,158.5C 7.5,157.5 7.5,156.5 7.5,155.5C 8.47197,152.868 9.8053,150.535 11.5,148.5 Z"/></g>
<g><path style="opacity:1" fill="#322911" d="M 125.5,146.5 C 126.167,147.167 126.833,147.833 127.5,148.5C 127.5,149.167 127.5,149.833 127.5,150.5C 127.12,152.698 127.787,154.365 129.5,155.5C 129.12,157.698 129.787,159.365 131.5,160.5C 131.5,161.833 131.5,163.167 131.5,164.5C 128.935,160.156 126.935,155.49 125.5,150.5C 125.5,149.167 125.5,147.833 125.5,146.5 Z"/></g>
<g><path style="opacity:1" fill="#cfab40" d="M 873.5,155.5 C 877.65,155.975 880.317,158.308 881.5,162.5C 880.833,162.5 880.167,162.5 879.5,162.5C 877.845,159.847 875.845,157.514 873.5,155.5 Z"/></g>
<g><path style="opacity:1" fill="#88702a" d="M 157.5,150.5 C 159.76,153.362 161.76,156.362 163.5,159.5C 163.784,161.415 163.451,163.081 162.5,164.5C 162.768,162.901 162.434,161.568 161.5,160.5C 159.581,157.34 158.248,154.006 157.5,150.5 Z"/></g>
<g><path style="opacity:0.565" fill="#211b0b" d="M 792.5,153.5 C 791.92,155.749 790.587,157.415 788.5,158.5C 789.08,156.251 790.413,154.585 792.5,153.5 Z"/></g>
<g><path style="opacity:1" fill="#2a230e" d="M 910.5,153.5 C 912.587,154.585 913.92,156.251 914.5,158.5C 913.167,157.5 911.833,156.5 910.5,155.5C 910.5,154.833 910.5,154.167 910.5,153.5 Z"/></g>
<g><path style="opacity:1" fill="#776225" d="M 910.5,155.5 C 911.833,156.5 913.167,157.5 914.5,158.5C 914.5,159.167 914.5,159.833 914.5,160.5C 912.413,159.415 911.08,157.749 910.5,155.5 Z"/></g>
<g><path style="opacity:1" fill="#7c6726" d="M 6.5,155.5 C 6.83333,155.5 7.16667,155.5 7.5,155.5C 7.5,156.5 7.5,157.5 7.5,158.5C 7.06795,159.71 6.40128,160.71 5.5,161.5C 5.51715,159.435 5.85048,157.435 6.5,155.5 Z"/></g>
<g><path style="opacity:1" fill="#8a712b" d="M 751.5,157.5 C 751.573,159.027 750.906,160.027 749.5,160.5C 749.427,158.973 750.094,157.973 751.5,157.5 Z"/></g>
<g><path style="opacity:1" fill="#7d6726" d="M 129.5,155.5 C 130.906,155.973 131.573,156.973 131.5,158.5C 131.5,159.167 131.5,159.833 131.5,160.5C 129.787,159.365 129.12,157.698 129.5,155.5 Z"/></g>
<g><path style="opacity:1" fill="#2b240f" d="M 914.5,158.5 C 916.167,159.833 917.833,161.167 919.5,162.5C 919.5,163.167 919.5,163.833 919.5,164.5C 918.833,164.5 918.167,164.5 917.5,164.5C 917.262,162.596 916.262,161.262 914.5,160.5C 914.5,159.833 914.5,159.167 914.5,158.5 Z"/></g>
<g><path style="opacity:1" fill="#e8c049" d="M 37.5,154.5 C 37.6061,157.079 36.9395,159.412 35.5,161.5C 30.5797,162.78 25.413,163.447 20,163.5C 14.7843,163.494 9.951,162.827 5.5,161.5C 6.40128,160.71 7.06795,159.71 7.5,158.5C 7.83333,158.5 8.16667,158.5 8.5,158.5C 8.33003,159.822 8.66337,160.989 9.5,162C 17.1667,162.667 24.8333,162.667 32.5,162C 34.5204,159.625 36.1871,157.125 37.5,154.5 Z"/></g>
<g><path style="opacity:1" fill="#64521f" d="M 39.5,153.5 C 39.3259,155.861 38.9926,158.194 38.5,160.5C 37.7281,161.694 36.7281,162.694 35.5,163.5C 35.5,162.833 35.5,162.167 35.5,161.5C 36.9395,159.412 37.6061,157.079 37.5,154.5C 38.1667,154.167 38.8333,153.833 39.5,153.5 Z"/></g>
<g><path style="opacity:1" fill="#f1c74b" d="M 486.5,7.5 C 486.333,58.8344 486.5,110.168 487,161.5C 524.761,162.496 562.594,162.83 600.5,162.5C 600.5,154.833 600.5,147.167 600.5,139.5C 570.329,139.831 540.329,139.498 510.5,138.5C 541.24,138.175 571.907,138.508 602.5,139.5C 602.5,147.5 602.5,155.5 602.5,163.5C 563.5,163.5 524.5,163.5 485.5,163.5C 485.168,111.331 485.501,59.3307 486.5,7.5 Z"/></g>
<g><path style="opacity:1" fill="#6c5921" d="M 131.5,160.5 C 132.345,161.671 133.011,163.005 133.5,164.5C 132.833,164.5 132.167,164.5 131.5,164.5C 131.5,163.167 131.5,161.833 131.5,160.5 Z"/></g>
<g><path style="opacity:1" fill="#b39438" d="M 131.5,158.5 C 132.965,159.406 133.965,160.739 134.5,162.5C 143.475,163.498 152.475,163.832 161.5,163.5C 161.5,162.5 161.5,161.5 161.5,160.5C 162.434,161.568 162.768,162.901 162.5,164.5C 152.833,164.5 143.167,164.5 133.5,164.5C 133.011,163.005 132.345,161.671 131.5,160.5C 131.5,159.833 131.5,159.167 131.5,158.5 Z"/></g>
<g><path style="opacity:1" fill="#a48833" d="M 247.5,6.5 C 248.499,58.9974 248.832,111.664 248.5,164.5C 239.318,164.827 230.318,164.493 221.5,163.5C 221.833,163.5 222.167,163.5 222.5,163.5C 230.5,163.5 238.5,163.5 246.5,163.5C 247.499,111.336 247.832,59.0027 247.5,6.5 Z"/></g>
<g><path style="opacity:1" fill="#b69639" d="M 602.5,138.5 C 603.493,146.984 603.826,155.651 603.5,164.5C 563.833,164.5 524.167,164.5 484.5,164.5C 484.5,164.167 484.5,163.833 484.5,163.5C 484.833,163.5 485.167,163.5 485.5,163.5C 524.5,163.5 563.5,163.5 602.5,163.5C 602.5,155.5 602.5,147.5 602.5,139.5C 602.5,139.167 602.5,138.833 602.5,138.5 Z"/></g>
<g><path style="opacity:1" fill="#af9036" d="M 796.5,144.5 C 795.89,145.391 795.557,146.391 795.5,147.5C 794.5,147.833 793.833,148.5 793.5,149.5C 790.395,152.275 788.062,155.608 786.5,159.5C 785.404,161.103 784.07,162.603 782.5,164C 770.486,164.833 758.486,164.666 746.5,163.5C 747.188,162.145 748.188,161.145 749.5,160.5C 749.586,161.496 749.252,162.329 748.5,163C 759.5,163.667 770.5,163.667 781.5,163C 785.622,156.052 790.622,149.886 796.5,144.5 Z"/></g>
<g><path style="opacity:1" fill="#a98b35" d="M 914.5,160.5 C 916.262,161.262 917.262,162.596 917.5,164.5C 905.162,164.667 892.829,164.5 880.5,164C 879.944,163.617 879.611,163.117 879.5,162.5C 880.167,162.5 880.833,162.5 881.5,162.5C 892.659,163.659 903.992,163.826 915.5,163C 914.748,162.329 914.414,161.496 914.5,160.5 Z"/></g>
<g><path style="opacity:1" fill="#332a11" d="M 6.5,155.5 C 5.85048,157.435 5.51715,159.435 5.5,161.5C 4.59603,162.209 4.26269,163.209 4.5,164.5C 15.0135,164.828 25.3468,164.494 35.5,163.5C 36.7281,162.694 37.7281,161.694 38.5,160.5C 38.7035,162.39 38.0368,163.89 36.5,165C 25.5,165.667 14.5,165.667 3.5,165C 2.97814,164.439 2.6448,163.772 2.5,163C 3.61549,160.28 4.94882,157.78 6.5,155.5 Z"/></g>
<g><path style="opacity:1" fill="#ac8e36" d="M 5.5,161.5 C 9.951,162.827 14.7843,163.494 20,163.5C 25.413,163.447 30.5797,162.78 35.5,161.5C 35.5,162.167 35.5,162.833 35.5,163.5C 25.3468,164.494 15.0135,164.828 4.5,164.5C 4.26269,163.209 4.59603,162.209 5.5,161.5 Z"/></g>
<g><path style="opacity:1" fill="#362d11" d="M 163.5,159.5 C 165.405,161.049 165.739,162.882 164.5,165C 153.326,165.826 142.326,165.659 131.5,164.5C 132.167,164.5 132.833,164.5 133.5,164.5C 143.167,164.5 152.833,164.5 162.5,164.5C 163.451,163.081 163.784,161.415 163.5,159.5 Z"/></g>
<g><path style="opacity:1" fill="#382f12" d="M 513.5,136.5 C 513.5,136.167 513.5,135.833 513.5,135.5C 513.833,135.5 514.167,135.5 514.5,135.5C 544.502,135.333 574.502,135.5 604.5,136C 605.802,140.582 606.469,145.415 606.5,150.5C 606.487,155.413 606.154,160.247 605.5,165C 564.331,165.831 523.331,165.665 482.5,164.5C 483.167,164.5 483.833,164.5 484.5,164.5C 524.167,164.5 563.833,164.5 603.5,164.5C 604.828,155.432 604.828,146.265 603.5,137C 573.502,136.5 543.502,136.333 513.5,136.5 Z"/></g>
<g><path style="opacity:1" fill="#453916" d="M 689.5,7.5 C 690.499,59.664 690.832,111.997 690.5,164.5C 680.5,165.833 670.5,165.833 660.5,164.5C 661.167,164.5 661.833,164.5 662.5,164.5C 671.5,164.5 680.5,164.5 689.5,164.5C 689.5,112.167 689.5,59.8333 689.5,7.5 Z"/></g>
</svg>