<?xml version="1.0" standalone="no"?>
<!DOCTYPE svg PUBLIC "-//W3C//DTD SVG 20010904//EN"
 "http://www.w3.org/TR/2001/REC-SVG-20010904/DTD/svg10.dtd">
<svg version="1.0" xmlns="http://www.w3.org/2000/svg"
 width="204.000000pt" height="246.000000pt" viewBox="0 0 204.000000 246.000000"
 preserveAspectRatio="xMidYMid meet">

<g transform="translate(0.000000,246.000000) scale(0.100000,-0.100000)"
fill="#FFFFFF" stroke="none">
<path d="M65 2451 c-11 -5 -29 -19 -40 -31 -20 -22 -20 -36 -20 -1027 l0
-1005 33 -29 32 -29 383 0 384 0 -26 55 -25 55 -336 2 -335 3 0 950 0 950 448
3 447 2 0 -239 c0 -213 2 -241 18 -260 16 -20 26 -21 267 -24 l250 -2 0 -273
0 -272 52 -15 c28 -8 54 -15 57 -15 3 0 6 146 6 325 l0 326 -82 83 c-46 46
-174 172 -284 280 l-201 196 -504 -1 c-277 0 -513 -4 -524 -8z"/>
<path d="M1283 1125 c-126 -34 -253 -134 -312 -244 -139 -262 -18 -597 256
-701 124 -48 299 -37 412 26 36 20 47 22 56 12 115 -131 191 -208 201 -206 14
4 134 116 134 126 -1 4 -47 58 -104 120 l-104 113 23 42 c50 88 69 239 44 347
-60 262 -347 434 -606 365z m283 -109 c164 -75 252 -220 242 -400 -3 -64 -11
-94 -36 -147 -38 -80 -118 -159 -199 -197 -52 -24 -70 -27 -163 -27 -102 0
-109 1 -182 38 -280 138 -306 523 -47 696 34 23 64 41 68 41 3 1 29 7 56 15
75 22 190 13 261 -19z"/>
<path d="M1255 790 l-29 -30 57 -58 57 -57 -57 -57 -57 -58 34 -35 34 -35 58
57 58 58 53 -58 52 -59 35 36 34 36 -53 54 -54 55 51 56 c29 31 52 60 52 64 0
4 -14 20 -30 36 l-30 29 -53 -52 c-29 -29 -56 -52 -61 -52 -4 0 -28 23 -53 50
-25 28 -50 50 -57 50 -7 0 -25 -14 -41 -30z"/>
</g>
</svg>
